<?xml version="1.0" encoding="UTF-8" standalone="no"?>
<!-- Created with Inkscape (http://www.inkscape.org/) -->

<svg
   width="207.92461mm"
   height="185.81644mm"
   viewBox="0 0 207.9246 185.81644"
   version="1.1"
   id="svg1"
   xml:space="preserve"
   inkscape:version="1.4 (e7c3feb100, 2024-10-09)"
   sodipodi:docname="logo-inkscape.svg"
   inkscape:export-filename="logo1.svg"
   inkscape:export-xdpi="96"
   inkscape:export-ydpi="96"
   xmlns:inkscape="http://www.inkscape.org/namespaces/inkscape"
   xmlns:sodipodi="http://sodipodi.sourceforge.net/DTD/sodipodi-0.dtd"
   xmlns:xlink="http://www.w3.org/1999/xlink"
   xmlns="http://www.w3.org/2000/svg"
   xmlns:svg="http://www.w3.org/2000/svg"><sodipodi:namedview
     id="namedview1"
     pagecolor="#000000"
     bordercolor="#eeeeee"
     borderopacity="1"
     inkscape:showpageshadow="0"
     inkscape:pageopacity="0"
     inkscape:pagecheckerboard="false"
     inkscape:deskcolor="#d1d1d1"
     inkscape:document-units="mm"
     inkscape:zoom="1.8969258"
     inkscape:cx="373.23547"
     inkscape:cy="399.59391"
     inkscape:window-width="1536"
     inkscape:window-height="783"
     inkscape:window-x="0"
     inkscape:window-y="0"
     inkscape:window-maximized="1"
     inkscape:current-layer="layer1"
     showgrid="false"
     showguides="true"><inkscape:grid
       type="xygrid"
       id="grid42557"
       originx="0"
       originy="0"
       spacingy="1"
       spacingx="1"
       units="mm"
       visible="false" /></sodipodi:namedview><defs
     id="defs1"><linearGradient
       inkscape:collect="always"
       id="linearGradient24289"><stop
         style="stop-color:#067ac5;stop-opacity:1;"
         offset="0.0541775"
         id="stop24285" /><stop
         style="stop-color:#a113a2;stop-opacity:1;"
         offset="0.3842245"
         id="stop24293" /><stop
         style="stop-color:#831cb9;stop-opacity:1;"
         offset="0.64996177"
         id="stop38749" /><stop
         style="stop-color:#5323bf;stop-opacity:1;"
         offset="1"
         id="stop24287" /></linearGradient><linearGradient
       inkscape:collect="always"
       id="linearGradient13240"><stop
         style="stop-color:#8507bc;stop-opacity:1;"
         offset="0.16346283"
         id="stop13236" /><stop
         style="stop-color:#e91c3d;stop-opacity:1;"
         offset="0.4071691"
         id="stop13244" /><stop
         style="stop-color:#f09b2c;stop-opacity:1;"
         offset="0.7531665"
         id="stop15385" /><stop
         style="stop-color:#f4db1f;stop-opacity:1;"
         offset="1"
         id="stop13238" /></linearGradient><linearGradient
       inkscape:collect="always"
       id="linearGradient6045"><stop
         style="stop-color:#b60f78;stop-opacity:1;"
         offset="0"
         id="stop6041" /><stop
         style="stop-color:#eb3252;stop-opacity:1;"
         offset="0.27176073"
         id="stop41564" /><stop
         style="stop-color:#fc8451;stop-opacity:1;"
         offset="0.53134894"
         id="stop8605" /><stop
         style="stop-color:#fda31b;stop-opacity:1;"
         offset="0.68783993"
         id="stop41562" /><stop
         style="stop-color:#fcd200;stop-opacity:1;"
         offset="1"
         id="stop8607" /></linearGradient><linearGradient
       inkscape:collect="always"
       xlink:href="#linearGradient6045"
       id="linearGradient6047"
       x1="186.3688"
       y1="189.67407"
       x2="127.66949"
       y2="87.325249"
       gradientUnits="userSpaceOnUse"
       gradientTransform="translate(-47.184112,21.435432)" /><linearGradient
       inkscape:collect="always"
       xlink:href="#linearGradient13240"
       id="linearGradient13242"
       x1="108.96082"
       y1="227.49759"
       x2="52.149826"
       y2="115.31329"
       gradientUnits="userSpaceOnUse"
       gradientTransform="translate(22.976249,-12.465811)" /><linearGradient
       inkscape:collect="always"
       xlink:href="#linearGradient24289"
       id="linearGradient24291"
       x1="50.033775"
       y1="196.21594"
       x2="99.403473"
       y2="58.251392"
       gradientUnits="userSpaceOnUse"
       gradientTransform="translate(15,9.9999997)" /><linearGradient
       inkscape:collect="always"
       xlink:href="#linearGradient29351"
       id="linearGradient29353"
       x1="92.936691"
       y1="221.84302"
       x2="157.54971"
       y2="88.469215"
       gradientUnits="userSpaceOnUse"
       gradientTransform="translate(-19.999871,-14.999425)" /><linearGradient
       inkscape:collect="always"
       id="linearGradient29351"><stop
         style="stop-color:#1586e5;stop-opacity:1;"
         offset="0.15091883"
         id="stop29347" /><stop
         style="stop-color:#d520fb;stop-opacity:1;"
         offset="0.29582936"
         id="stop29355" /><stop
         style="stop-color:#cb04f4;stop-opacity:1;"
         offset="0.51962906"
         id="stop39438" /><stop
         style="stop-color:#5405e0;stop-opacity:1;"
         offset="0.72461057"
         id="stop36713" /><stop
         style="stop-color:#4a05f9;stop-opacity:1;"
         offset="0.99703807"
         id="stop29349" /></linearGradient></defs><g
     inkscape:label="Layer 1"
     inkscape:groupmode="layer"
     id="layer1"
     transform="translate(-1.0838938,-49.368198)"
     style="display:inline"><g
       id="g43964"
       style="display:inline"
       inkscape:label="bg"><path
         id="path42613"
         style="display:inline;opacity:1;fill:#ffffff;stroke-width:0.1;stroke-linecap:round;stroke-linejoin:round;stop-color:#000000"
         inkscape:transform-center-x="1.8926265e-06"
         d="m 947.84279,531.2266 c 0.086,19.48608 -9.60851,37.1085 -19.88559,54.88104 -49.306,85.26672 -105.66984,181.29218 -144.10591,247.35121 -9.47578,16.28577 -19.46799,32.04703 -37.27424,42.3124 -17.80625,10.26536 -36.35783,7.65817 -54.72807,7.91526 -101.71616,1.42349 -202.3554,-0.91374 -305.79688,-2.21055 -14.84664,-3.65792 -23.60472,-5.89378 -33.39743,-12.73431 -12.23181,-8.54433 -21.65913,-19.91462 -29.50807,-33.84617 -52.13677,-92.54066 -97.92721,-174.44046 -147.36322,-264.55916 -7.71491,-14.06378 -14.29262,-28.89957 -13.75643,-44.49787 0.66198,-19.25771 6.0316,-33.65333 15.90966,-50.44781 48.98102,-83.27659 100.56083,-171.28789 150.33926,-258.80393 7.96171,-13.99758 18.02545,-25.24552 30.95082,-32.82747 14.98787,-8.79179 30.5771,-12.86302 50.44732,-12.57902 99.07826,1.4161 196.76969,0.6747 295.70125,2.61827 17.48853,0.34357 34.89587,2.08601 48.76632,11.48832 17.12325,11.60728 22.1336,18.6187 29.0443,31.03841 39.27164,70.57783 94.05855,167.43623 140.0954,248.95475 10.92244,19.34062 24.45785,42.4497 24.56151,65.94663 z"
         sodipodi:nodetypes="asszscasssssasssssa"
         inkscape:label="white"
         transform="matrix(0.26457418,-0.00217198,0.0022008,0.26110931,-42.936589,5.6290183)" /><path
         id="path43926"
         style="display:inline;fill:#e1e1e1;fill-opacity:0.996078;stroke:none;stroke-width:0.1;stroke-linecap:round;stroke-linejoin:round;stop-color:#000000"
         d="m 24.41422,96.35266 c -3.190382,5.51158 -6.375277,10.99351 -9.536369,16.41915 -3.26059,5.59642 -6.4969246,11.13684 -9.690881,16.59951 -0.3220645,0.55083 -0.625719,1.0916 -0.9105388,1.62625 -0.2848198,0.53466 -0.551094,1.06317 -0.7984009,1.58905 -0.2473068,0.52588 -0.4757038,1.04904 -0.6852294,1.57355 -0.2095257,0.52451 -0.4000653,1.05024 -0.5715414,1.58078 -0.1714761,0.53055 -0.3236614,1.06626 -0.4568197,1.61024 -0.1331582,0.54398 -0.2475258,1.09657 -0.3420979,1.6614 -0.094572,0.56483 -0.1695916,1.1417 -0.2253093,1.73478 -0.055718,0.59307 -0.091926,1.20217 -0.1085205,1.83089 -0.00672,0.25463 -0.00603,0.50824 0.00155,0.7612 0.00758,0.25295 0.022291,0.50526 0.043408,0.75654 0.021117,0.25128 0.048804,0.50175 0.082682,0.75137 0.033878,0.24963 0.073506,0.49825 0.1193726,0.74621 0.091734,0.49593 0.2070414,0.98862 0.3420979,1.47795 0.1350566,0.48932 0.2903021,0.97554 0.4625041,1.45831 0.172202,0.48276 0.3611361,0.96191 0.5643067,1.43815 0.2031705,0.47624 0.420577,0.94927 0.6485392,1.41904 0.2279621,0.46976 0.4665579,0.93659 0.7131347,1.39991 0.2465768,0.46333 0.5011459,0.92335 0.7601604,1.38028 3.319453,5.85586 6.5773563,11.57819 9.8159383,17.24339 3.238581,5.6652 6.45753,11.27302 9.699149,16.90078 3.24162,5.62775 6.505976,11.2756 9.834542,17.01911 3.328567,5.74352 6.721658,11.58282 10.221082,17.59531 0.26341,0.45258 0.532853,0.89459 0.809769,1.32602 0.276917,0.43143 0.560974,0.85245 0.852662,1.26246 0.291688,0.41 0.591445,0.80904 0.899169,1.19734 0.307725,0.38829 0.623755,0.76592 0.94878,1.13223 0.325025,0.36631 0.658932,0.72153 1.002523,1.06557 0.34359,0.34404 0.696462,0.67689 1.059883,0.99839 0.363422,0.32149 0.737378,0.63151 1.121896,0.93017 0.384517,0.29866 0.779613,0.58589 1.18649,0.86145 0.325744,0.2206 0.64732,0.4226 0.9679,0.60875 0.32058,0.18614 0.64042,0.3564 0.963249,0.51418 0.322829,0.15777 0.648843,0.30272 0.981335,0.43821 0.332492,0.13549 0.671558,0.26157 1.021126,0.38086 0.349569,0.11929 0.709597,0.23188 1.083655,0.34106 0.374059,0.10918 0.761925,0.21473 1.167888,0.31988 0.811924,0.2103 1.695402,0.41885 2.679423,0.64957 6.842692,0.0285 13.63878,0.0743 20.404956,0.11782 6.766175,0.0435 13.502171,0.0848 20.223577,0.10387 3.3607,0.01 6.71782,0.0133 10.07328,0.009 3.35546,-0.004 6.70929,-0.0158 10.06347,-0.0382 3.35418,-0.0224 6.70866,-0.0555 10.06554,-0.10129 3.35687,-0.0458 6.71646,-0.10421 10.08,-0.17828 0.60747,-0.0134 1.21556,-0.0154 1.82418,-0.0134 0.60861,0.002 1.21757,0.008 1.82624,0.009 0.60868,0.001 1.21706,-0.002 1.8247,-0.017 0.60763,-0.0155 1.21454,-0.0437 1.82004,-0.092 0.30276,-0.0241 0.60491,-0.053 0.90692,-0.0884 0.30202,-0.0353 0.60372,-0.077 0.90486,-0.12557 0.30114,-0.0486 0.60214,-0.10417 0.90227,-0.16795 0.30013,-0.0638 0.59967,-0.13553 0.89865,-0.21653 0.29899,-0.081 0.59734,-0.17107 0.89504,-0.2713 0.2977,-0.10022 0.59462,-0.21082 0.8909,-0.33228 0.0768,-0.0315 0.15322,-0.0703 0.22996,-0.10335 -0.0177,-0.008 -0.0328,-0.0165 -0.0506,-0.0248 C 134.88665,224.12875 111.4361,206.53234 84.74391,182.5262 58.140036,158.5995 40.212021,126.37532 24.536732,96.59708 c -0.03396,-0.06452 -0.08654,-0.175329 -0.122473,-0.24443 z"
         inkscape:label="shade" /></g><path
       d="m 106.2382,64.323874 c -0.98492,-0.03212 -1.6955,0.04237 -1.6955,0.04237 0,0 0.83902,0.256055 1.23196,0.444417 0.61069,0.29274 1.32171,0.695451 1.74511,1.045414 2.48445,2.368126 -0.86805,8.641989 -4.22713,12.217859 -2.24985,2.588689 -4.780918,6.002671 -4.744928,9.196338 0.06461,5.733116 3.540358,9.018236 7.024898,14.005343 3.48454,4.9871 3.92689,7.89771 3.92689,7.89771 1.75853,5.90052 -0.20194,11.12418 -3.90674,15.63988 -3.10507,3.49661 -8.068524,7.26637 -12.362553,10.78848 -4.97263,3.85809 -11.732231,8.9681 -15.859497,13.01471 -2.336669,2.32401 -6.708082,7.65435 -8.433594,10.70013 -2.614114,5.48274 -3.71647,11.32491 -3.7946,15.07866 -0.07065,3.39443 0.510989,6.91311 2.068091,11.01432 1.557103,4.1012 4.605799,9.12411 9.426298,13.0669 2.167265,1.92494 4.263097,3.16348 5.347477,3.90157 2.495962,1.6989 8.319906,3.96358 8.319906,3.96358 0,0 -5.441949,-1.91403 -12.691732,-10.45569 -1.416901,-1.66939 -2.435484,-3.17105 -3.158464,-4.55528 -0.871556,-1.6687 -1.31331,-3.16698 -1.505334,-4.58318 -0.463718,-3.41994 -0.44468,-6.66025 -0.125057,-9.46816 0.319621,-2.80791 0.961626,-4.532 1.634525,-6.48642 1.621236,-4.70884 4.436671,-8.5982 5.917469,-10.62209 0.80964,-1.10658 2.493749,-2.7446 5.235856,-5.37177 6.098099,-5.84249 15.639269,-14.66057 18.907889,-17.64027 2.60924,-2.37861 4.65397,-4.3966 6.5474,-6.72982 1.51156,-1.86266 3.06832,-3.69535 4.33566,-6.48694 1.15979,-2.55469 1.32593,-5.85135 0.56224,-8.95294 -0.48936,-1.98745 -1.30731,-3.37454 -1.99471,-4.73925 -0.68739,-1.36471 -1.41194,-2.58233 -2.56781,-3.93619 -1.15587,-1.35387 -2.70637,-2.9131 -4.30826,-4.91081 -0.83079,-1.03608 -1.44119,-2.513118 -1.87895,-3.947048 -1.03207,-3.45409 -1.39958,-7.795938 0.13125,-11.807548 0.62848,-1.904923 1.60442,-4.002056 3.11609,-6.05131 1.75561,-2.379955 2.86987,-4.142704 3.53467,-5.602242 0.75039,-1.647401 0.89018,-3.111057 0.88418,-4.133081 -0.009,-1.007353 -0.19211,-2.493808 -1.13739,-3.543453 -0.54507,-0.619821 -1.32314,-1.069661 -2.16318,-1.396297 -1.09825,-0.427036 -2.35751,-0.565775 -3.34243,-0.597897 z"
       style="baseline-shift:baseline;display:inline;overflow:visible;vector-effect:none;fill:url(#linearGradient24291);stroke-linecap:round;stroke-linejoin:round;enable-background:accumulate;stop-color:#000000;stop-opacity:1"
       id="path8" /><path
       d="m 106.13588,64.023634 c -1.04245,0.05599 -1.59318,0.342615 -1.59318,0.342615 0,0 2.84142,-0.298549 5.03793,0.555522 0.84004,0.326636 1.61811,0.776476 2.16318,1.396297 0.94528,1.049645 1.12817,2.5361 1.13739,3.543453 0.006,1.022024 -0.13379,2.48568 -0.88418,4.133081 -0.6648,1.459538 -1.77906,3.222287 -3.53467,5.602242 -1.51167,2.049254 -2.48761,4.146387 -3.11609,6.05131 -1.53083,4.01161 -1.16332,8.353458 -0.13125,11.807548 0.43776,1.43393 1.04816,2.910968 1.87895,3.947048 1.60189,1.99771 3.15239,3.55694 4.30826,4.91081 1.15587,1.35386 1.88042,2.57148 2.56781,3.93619 0.6874,1.36471 1.50535,2.7518 1.99471,4.73925 0.76369,3.10159 0.59755,6.39825 -0.56224,8.95294 -1.26734,2.79159 -2.8241,4.62428 -4.33566,6.48694 -1.89343,2.33322 -3.93816,4.35121 -6.5474,6.72982 -3.26862,2.9797 -12.80979,11.79778 -18.907889,17.64027 -2.742107,2.62717 -4.426216,4.26519 -5.235856,5.37177 -1.480798,2.02389 -4.296233,5.91325 -5.917469,10.62209 -0.672899,1.95442 -1.314904,3.67851 -1.634525,6.48642 -0.319623,2.80791 -0.338661,6.04822 0.125057,9.46816 0.192024,1.4162 0.633778,2.91448 1.505334,4.58318 0.72298,1.38423 1.741563,2.88589 3.158464,4.55528 7.249783,8.54166 12.691732,10.45569 12.691732,10.45569 0,0 -7.113232,-6.04762 -8.619112,-11.50524 -1.50588,-5.45762 -1.647911,-9.67005 1.953369,-16.10393 1.26874,-2.26667 2.545037,-3.74406 3.445267,-4.81934 1.65449,-1.97617 2.652309,-2.59431 4.329969,-4.25865 2.59052,-2.56994 17.871739,-14.49331 25.854239,-22.74022 1.45704,-1.5053 2.10456,-2.06761 3.9951,-4.8519 1.4918,-2.19704 2.52725,-4.93947 3.12694,-7.07502 0.57413,-2.04448 0.9795,-5.91153 0.61495,-8.87646 -0.36455,-2.96493 -1.02413,-4.76566 -2.42672,-7.70909 -1.40259,-2.94343 -3.17053,-5.15432 -4.79661,-7.20835 -1.62608,-2.05403 -3.29038,-4.04746 -5.39967,-6.07146 -0.82616,-0.79275 -1.63333,-1.39149 -2.28978,-1.93166 -0.89529,-0.73671 -1.50999,-1.28003 -1.50999,-1.28003 0,0 -1.94781,-1.70182 -1.94768,-4.799706 4e-5,-0.75578 0.11615,-1.594432 0.40462,-2.511992 0.58199,-2.2563 2.15419,-3.37023 2.88096,-4.16357 1.48627,-1.63928 5.17928,-4.077808 7.20938,-6.889502 1.06071,-1.469094 2.31844,-3.327756 2.40296,-5.965011 0.15457,-4.823346 -1.79104,-8.101257 -3.57704,-10.076904 -1.46657,-1.62231 -2.1797,-1.994674 -2.82567,-2.366264 -0.98107,-0.564354 -2.16342,-0.698857 -3.28249,-0.868164 -0.87883,-0.132962 -2.56415,-0.307076 -3.7114,-0.245463 z"
       style="baseline-shift:baseline;display:inline;overflow:visible;vector-effect:none;fill:url(#linearGradient29353);stroke-linecap:round;stroke-linejoin:round;enable-background:accumulate;stop-color:#000000;stop-opacity:1"
       id="path7" /><path
       style="display:inline;fill:url(#linearGradient6047);fill-opacity:1;stroke:none;stroke-width:0.079375;stroke-linecap:round;stroke-linejoin:round;stroke-dasharray:none;stroke-opacity:1"
       d="m 119.37912,220.55222 c 0,0 2.86524,-1.13428 5.87299,-3.09987 2.46849,-1.61318 4.93304,-3.85769 6.83935,-5.88688 3.73455,-3.97526 6.80297,-7.64511 9.55131,-12.6887 1.28954,-2.36647 2.95806,-5.97036 3.36157,-8.54354 0.91987,-5.86599 -0.31816,-9.52659 -1.6487,-12.43905 -0.85692,-1.87575 -1.61524,-3.27213 -3.4552,-5.47566 -1.23003,-1.47308 -2.31491,-2.66864 -3.76351,-3.9295 -3.69421,-3.21542 -8.53431,-6.00417 -13.96038,-9.52379 -3.91988,-2.54263 -9.948,-6.83254 -15.14073,-10.78678 -4.81388,-3.66576 -7.982599,-6.54735 -10.368255,-9.15232 -2.385656,-2.60497 -4.752223,-5.20265 -6.80091,-10.74031 -2.048687,-5.53766 -1.27133,-9.56838 0.75174,-15.70975 1.37564,-4.176 4.46272,-9.22503 4.46272,-9.22503 0,0 -4.03069,4.4946 -5.42309,6.99163 -0.63104,1.13164 -1.79376,3.04059 -2.81345,5.33557 -1.230301,2.76901 -2.323801,6.11189 -2.959531,9.48545 -0.43361,2.30102 -0.75707,4.5546 -0.77901,6.77885 -0.0369,3.73951 0.73225,7.38605 1.95997,10.97235 1.957971,5.71942 5.801391,12.35079 13.618411,18.26895 3.183815,2.41042 7.852285,6.23199 12.353825,9.43262 6.55079,4.65766 12.74806,8.51378 13.50195,9.05583 1.27196,0.91455 8.41392,6.91802 9.66756,11.10172 1.25364,4.1837 0.68487,6.58589 0.19397,8.609 -0.4909,2.02311 -0.6714,3.94249 -2.71852,7.60196 -2.04712,3.65948 -4.57554,6.95418 -6.48047,8.8153 -1.90493,1.86111 -5.82361,4.75195 -5.82361,4.75195 z"
       id="path156"
       sodipodi:nodetypes="cssssssssszzszcsssssssszzzc"
       inkscape:label="bottom-right" /><path
       d="m 95.091592,103.35405 c 0,0 -1.769751,-0.001 -8.352978,8.05687 -6.583225,8.05812 -10.231047,16.56873 -11.600842,25.68009 -0.536546,3.5689 -0.199901,6.95971 0.562756,10.05985 1.1844,4.8145 3.374978,8.93923 4.964555,11.91659 1.013457,1.89825 3.312924,4.66015 5.669938,6.78976 2.447889,2.21171 5.228728,4.29357 7.809859,6.29057 5.06644,3.91986 15.50241,11.09907 15.50241,11.09907 0,0 11.15853,6.56769 14.873,14.80891 1.48393,3.29236 1.75981,6.00232 1.74821,7.9866 -0.0174,2.98264 -0.8007,5.62403 -1.44281,7.01197 -0.76417,1.65177 -1.97632,3.29785 -3.06596,4.8705 -1.04334,1.50582 -2.36988,2.63033 -2.36988,2.63033 0,0 0.77885,-0.42486 3.19257,-2.40967 0.72573,-0.59677 1.68353,-1.34425 2.66444,-2.29546 1.58359,-1.53563 2.71131,-2.78732 3.83491,-4.32687 1.30116,-1.78284 2.54551,-3.77583 3.56619,-6.1836 1.50828,-3.51067 2.70469,-7.27102 2.39882,-11.39311 -0.26304,-3.12495 -1.44178,-5.11235 -1.44178,-5.11235 0,0 -1.00073,-1.95313 -3.30884,-4.39973 -3.05499,-2.84248 -5.37439,-4.64724 -8.57467,-6.76341 -4.97503,-3.34637 -14.55782,-10.18441 -20.05252,-14.35571 -5.494698,-4.17129 -4.766949,-3.45905 -6.732924,-5.38314 -1.965975,-1.9241 -3.826144,-4.02314 -5.18728,-5.98929 -1.298705,-1.87597 -2.573835,-4.24268 -3.108337,-5.41621 -0.534503,-1.17353 -0.891826,-2.00766 -1.310515,-3.18275 -1.039541,-2.91757 -1.929015,-6.43793 -2.075842,-9.90689 -0.09216,-2.17731 0.08912,-4.3586 0.377755,-6.36395 0.33218,-2.3079 0.780434,-4.15953 1.239717,-5.76503 0.831695,-2.90732 1.732353,-4.87595 2.393136,-6.29264 1.025689,-2.19903 2.637248,-5.07173 3.974434,-6.90242 1.337186,-1.8307 3.852478,-4.75888 3.852478,-4.75888 z"
       style="baseline-shift:baseline;display:inline;overflow:visible;vector-effect:none;fill:url(#linearGradient13242);stroke-linecap:round;stroke-linejoin:round;enable-background:accumulate;stop-color:#000000;stop-opacity:1"
       id="path6" /></g></svg>
