<?xml version="1.0" encoding="UTF-8" standalone="no"?>
<!-- Created with Inkscape (http://www.inkscape.org/) -->

<svg
   width="207.92461mm"
   height="185.81644mm"
   viewBox="0 0 207.9246 185.81644"
   version="1.1"
   id="svg1"
   xml:space="preserve"
   inkscape:version="1.2.2 (b0a8486541, 2022-12-01)"
   sodipodi:docname="logo.svg"
   inkscape:export-filename="logo-inkscape.svg"
   inkscape:export-xdpi="96"
   inkscape:export-ydpi="96"
   xmlns:inkscape="http://www.inkscape.org/namespaces/inkscape"
   xmlns:sodipodi="http://sodipodi.sourceforge.net/DTD/sodipodi-0.dtd"
   xmlns:xlink="http://www.w3.org/1999/xlink"
   xmlns="http://www.w3.org/2000/svg"
   xmlns:svg="http://www.w3.org/2000/svg"><sodipodi:namedview
     id="namedview1"
     pagecolor="#000000"
     bordercolor="#eeeeee"
     borderopacity="1"
     inkscape:showpageshadow="0"
     inkscape:pageopacity="0"
     inkscape:pagecheckerboard="0"
     inkscape:deskcolor="#d1d1d1"
     inkscape:document-units="mm"
     inkscape:zoom="0.62423304"
     inkscape:cx="539.86249"
     inkscape:cy="562.29001"
     inkscape:window-width="1536"
     inkscape:window-height="783"
     inkscape:window-x="0"
     inkscape:window-y="0"
     inkscape:window-maximized="1"
     inkscape:current-layer="layer1"
     showgrid="false"
     showguides="true"><inkscape:grid
       type="xygrid"
       id="grid42557" /></sodipodi:namedview><defs
     id="defs1"><linearGradient
       inkscape:collect="always"
       id="linearGradient24289"><stop
         style="stop-color:#067ac5;stop-opacity:1;"
         offset="0.0541775"
         id="stop24285" /><stop
         style="stop-color:#a113a2;stop-opacity:1;"
         offset="0.3842245"
         id="stop24293" /><stop
         style="stop-color:#831cb9;stop-opacity:1;"
         offset="0.64996177"
         id="stop38749" /><stop
         style="stop-color:#5323bf;stop-opacity:1;"
         offset="1"
         id="stop24287" /></linearGradient><linearGradient
       inkscape:collect="always"
       id="linearGradient13240"><stop
         style="stop-color:#8507bc;stop-opacity:1;"
         offset="0.16346283"
         id="stop13236" /><stop
         style="stop-color:#e91c3d;stop-opacity:1;"
         offset="0.4071691"
         id="stop13244" /><stop
         style="stop-color:#f09b2c;stop-opacity:1;"
         offset="0.7531665"
         id="stop15385" /><stop
         style="stop-color:#f4db1f;stop-opacity:1;"
         offset="1"
         id="stop13238" /></linearGradient><linearGradient
       inkscape:collect="always"
       id="linearGradient6045"><stop
         style="stop-color:#b60f78;stop-opacity:1;"
         offset="0"
         id="stop6041" /><stop
         style="stop-color:#eb3252;stop-opacity:1;"
         offset="0.27176073"
         id="stop41564" /><stop
         style="stop-color:#fc8451;stop-opacity:1;"
         offset="0.53134894"
         id="stop8605" /><stop
         style="stop-color:#fda31b;stop-opacity:1;"
         offset="0.68783993"
         id="stop41562" /><stop
         style="stop-color:#fcd200;stop-opacity:1;"
         offset="1"
         id="stop8607" /></linearGradient><linearGradient
       inkscape:collect="always"
       xlink:href="#linearGradient6045"
       id="linearGradient6047"
       x1="186.3688"
       y1="189.67407"
       x2="127.66949"
       y2="87.325249"
       gradientUnits="userSpaceOnUse"
       gradientTransform="translate(-47.184559,21.435561)" /><linearGradient
       inkscape:collect="always"
       xlink:href="#linearGradient13240"
       id="linearGradient13242"
       x1="108.96082"
       y1="227.49759"
       x2="52.149826"
       y2="115.31329"
       gradientUnits="userSpaceOnUse"
       gradientTransform="translate(22.975802,-12.465682)" /><linearGradient
       inkscape:collect="always"
       xlink:href="#linearGradient24289"
       id="linearGradient24291"
       x1="50.033775"
       y1="196.21594"
       x2="99.403473"
       y2="58.251392"
       gradientUnits="userSpaceOnUse"
       gradientTransform="translate(15,9.9999997)" /><linearGradient
       inkscape:collect="always"
       xlink:href="#linearGradient29351"
       id="linearGradient29353"
       x1="92.936691"
       y1="221.84302"
       x2="157.54971"
       y2="88.469215"
       gradientUnits="userSpaceOnUse"
       gradientTransform="translate(-19.999871,-14.999425)" /><linearGradient
       inkscape:collect="always"
       id="linearGradient29351"><stop
         style="stop-color:#1586e5;stop-opacity:1;"
         offset="0.15091883"
         id="stop29347" /><stop
         style="stop-color:#d520fb;stop-opacity:1;"
         offset="0.29582936"
         id="stop29355" /><stop
         style="stop-color:#cb04f4;stop-opacity:1;"
         offset="0.51962906"
         id="stop39438" /><stop
         style="stop-color:#5405e0;stop-opacity:1;"
         offset="0.72461057"
         id="stop36713" /><stop
         style="stop-color:#4a05f9;stop-opacity:1;"
         offset="0.99703807"
         id="stop29349" /></linearGradient></defs><g
     inkscape:label="Layer 1"
     inkscape:groupmode="layer"
     id="layer1"
     transform="translate(-1.0838938,-49.368198)"
     style="display:inline"><g
       id="g43964"
       style="display:inline"
       inkscape:label="bg"><path
         id="path42613"
         style="display:inline;opacity:1;fill:#ffffff;stroke-width:0.1;stroke-linecap:round;stroke-linejoin:round;stop-color:#000000"
         inkscape:transform-center-x="1.8926265e-06"
         d="m 947.84279,531.2266 c 0.086,19.48608 -9.60851,37.1085 -19.88559,54.88104 -49.306,85.26672 -105.66984,181.29218 -144.10591,247.35121 -9.47578,16.28577 -19.46799,32.04703 -37.27424,42.3124 -17.80625,10.26536 -36.35783,7.65817 -54.72807,7.91526 -101.71616,1.42349 -202.3554,-0.91374 -305.79688,-2.21055 -14.84664,-3.65792 -23.60472,-5.89378 -33.39743,-12.73431 -12.23181,-8.54433 -21.65913,-19.91462 -29.50807,-33.84617 -52.13677,-92.54066 -97.92721,-174.44046 -147.36322,-264.55916 -7.71491,-14.06378 -14.29262,-28.89957 -13.75643,-44.49787 0.66198,-19.25771 6.0316,-33.65333 15.90966,-50.44781 48.98102,-83.27659 100.56083,-171.28789 150.33926,-258.80393 7.96171,-13.99758 18.02545,-25.24552 30.95082,-32.82747 14.98787,-8.79179 30.5771,-12.86302 50.44732,-12.57902 99.07826,1.4161 196.76969,0.6747 295.70125,2.61827 17.48853,0.34357 34.89587,2.08601 48.76632,11.48832 17.12325,11.60728 22.1336,18.6187 29.0443,31.03841 39.27164,70.57783 94.05855,167.43623 140.0954,248.95475 10.92244,19.34062 24.45785,42.4497 24.56151,65.94663 z"
         sodipodi:nodetypes="asszscasssssasssssa"
         inkscape:label="white"
         transform="matrix(0.26457418,-0.00217198,0.0022008,0.26110931,-42.936589,5.6290183)" /><path
         id="path43926"
         style="display:inline;fill:#e1e1e1;fill-opacity:0.996078;stroke:none;stroke-width:0.1;stroke-linecap:round;stroke-linejoin:round;stop-color:#000000"
         d="m 24.41422,96.35266 c -3.190382,5.51158 -6.375277,10.99351 -9.536369,16.41915 -3.26059,5.59642 -6.4969246,11.13684 -9.690881,16.59951 -0.3220645,0.55083 -0.625719,1.0916 -0.9105388,1.62625 -0.2848198,0.53466 -0.551094,1.06317 -0.7984009,1.58905 -0.2473068,0.52588 -0.4757038,1.04904 -0.6852294,1.57355 -0.2095257,0.52451 -0.4000653,1.05024 -0.5715414,1.58078 -0.1714761,0.53055 -0.3236614,1.06626 -0.4568197,1.61024 -0.1331582,0.54398 -0.2475258,1.09657 -0.3420979,1.6614 -0.094572,0.56483 -0.1695916,1.1417 -0.2253093,1.73478 -0.055718,0.59307 -0.091926,1.20217 -0.1085205,1.83089 -0.00672,0.25463 -0.00603,0.50824 0.00155,0.7612 0.00758,0.25295 0.022291,0.50526 0.043408,0.75654 0.021117,0.25128 0.048804,0.50175 0.082682,0.75137 0.033878,0.24963 0.073506,0.49825 0.1193726,0.74621 0.091734,0.49593 0.2070414,0.98862 0.3420979,1.47795 0.1350566,0.48932 0.2903021,0.97554 0.4625041,1.45831 0.172202,0.48276 0.3611361,0.96191 0.5643067,1.43815 0.2031705,0.47624 0.420577,0.94927 0.6485392,1.41904 0.2279621,0.46976 0.4665579,0.93659 0.7131347,1.39991 0.2465768,0.46333 0.5011459,0.92335 0.7601604,1.38028 3.319453,5.85586 6.5773563,11.57819 9.8159383,17.24339 3.238581,5.6652 6.45753,11.27302 9.699149,16.90078 3.24162,5.62775 6.505976,11.2756 9.834542,17.01911 3.328567,5.74352 6.721658,11.58282 10.221082,17.59531 0.26341,0.45258 0.532853,0.89459 0.809769,1.32602 0.276917,0.43143 0.560974,0.85245 0.852662,1.26246 0.291688,0.41 0.591445,0.80904 0.899169,1.19734 0.307725,0.38829 0.623755,0.76592 0.94878,1.13223 0.325025,0.36631 0.658932,0.72153 1.002523,1.06557 0.34359,0.34404 0.696462,0.67689 1.059883,0.99839 0.363422,0.32149 0.737378,0.63151 1.121896,0.93017 0.384517,0.29866 0.779613,0.58589 1.18649,0.86145 0.325744,0.2206 0.64732,0.4226 0.9679,0.60875 0.32058,0.18614 0.64042,0.3564 0.963249,0.51418 0.322829,0.15777 0.648843,0.30272 0.981335,0.43821 0.332492,0.13549 0.671558,0.26157 1.021126,0.38086 0.349569,0.11929 0.709597,0.23188 1.083655,0.34106 0.374059,0.10918 0.761925,0.21473 1.167888,0.31988 0.811924,0.2103 1.695402,0.41885 2.679423,0.64957 6.842692,0.0285 13.63878,0.0743 20.404956,0.11782 6.766175,0.0435 13.502171,0.0848 20.223577,0.10387 3.3607,0.01 6.71782,0.0133 10.07328,0.009 3.35546,-0.004 6.70929,-0.0158 10.06347,-0.0382 3.35418,-0.0224 6.70866,-0.0555 10.06554,-0.10129 3.35687,-0.0458 6.71646,-0.10421 10.08,-0.17828 0.60747,-0.0134 1.21556,-0.0154 1.82418,-0.0134 0.60861,0.002 1.21757,0.008 1.82624,0.009 0.60868,0.001 1.21706,-0.002 1.8247,-0.017 0.60763,-0.0155 1.21454,-0.0437 1.82004,-0.092 0.30276,-0.0241 0.60491,-0.053 0.90692,-0.0884 0.30202,-0.0353 0.60372,-0.077 0.90486,-0.12557 0.30114,-0.0486 0.60214,-0.10417 0.90227,-0.16795 0.30013,-0.0638 0.59967,-0.13553 0.89865,-0.21653 0.29899,-0.081 0.59734,-0.17107 0.89504,-0.2713 0.2977,-0.10022 0.59462,-0.21082 0.8909,-0.33228 0.0768,-0.0315 0.15322,-0.0703 0.22996,-0.10335 -0.0177,-0.008 -0.0328,-0.0165 -0.0506,-0.0248 C 134.88665,224.12875 111.4361,206.53234 84.74391,182.5262 58.140036,158.5995 40.212021,126.37532 24.536732,96.59708 c -0.03396,-0.06452 -0.08654,-0.175329 -0.122473,-0.24443 z"
         inkscape:label="shade" /></g><g
       id="g38897"
       inkscape:label="top"
       style="display:inline"><path
         style="opacity:1;fill:url(#linearGradient24291);fill-opacity:1;stroke:none;stroke-width:0.1;stroke-linecap:round;stroke-linejoin:round;stop-color:#000000"
         d="m 90.304196,206.34154 c 0,0 -5.823998,-2.26448 -8.31996,-3.96338 -1.08438,-0.73809 -3.180186,-1.97688 -5.347451,-3.90182 -4.820499,-3.94279 -7.868852,-8.96578 -9.425955,-13.06698 -1.557102,-4.10121 -2.138914,-7.61949 -2.068265,-11.01392 0.07813,-3.75375 1.180551,-9.59628 3.794665,-15.07902 1.725512,-3.04578 6.096557,-8.37615 8.433226,-10.70016 4.127266,-4.04661 10.887071,-9.15632 15.859701,-13.01441 4.294029,-3.52211 9.257613,-7.29229 12.362683,-10.7889 3.7048,-4.5157 5.66497,-9.73914 3.90644,-15.63966 0,0 -0.44223,-2.91046 -3.92677,-7.89756 -3.48454,-4.987111 -6.960375,-8.272556 -7.024985,-14.005672 -0.03599,-3.193667 2.495505,-6.60721 4.745355,-9.195899 3.35908,-3.57587 6.71117,-9.849823 4.22672,-12.217949 -0.4234,-0.349963 -1.13435,-0.752702 -1.74504,-1.045442 -0.39294,-0.188362 -1.23207,-0.44461 -1.23207,-0.44461 0,0 1.11807,-0.137539 1.72432,-0.08858 0.78028,0.04787 1.52853,0.127413 2.24691,0.294289 0.36845,0.08559 0.7182,0.164733 1.08293,0.335545 1.43326,0.64514 1.95721,0.809557 2.80178,2.334209 0,0 0.35074,0.905465 0.41112,1.375876 0.0604,0.470411 0.22903,1.895409 -0.0706,3.146872 -0.26274,1.284289 -0.63829,2.306986 -1.91011,4.493521 -1.27183,2.186538 -2.54079,3.45137 -3.50654,5.233294 -0.96574,1.781921 -2.04365,4.192742 -2.49786,6.102129 -0.45421,1.909384 -0.46517,4.888204 -0.35849,5.740257 0.11534,0.921203 0.38982,3.173246 1.09117,4.960257 0.70135,1.787023 1.45811,3.294733 2.89951,4.506953 1.4414,1.21223 3.11269,2.44602 3.11269,2.44602 0,0 1.36545,1.25727 2.08854,3.17217 0.7231,1.91489 4.69301,8.77638 2.19325,14.88917 -1.29941,3.17753 -3.3689,6.21431 -5.79951,8.77048 -2.46303,2.59027 -4.88878,4.42747 -5.53236,5.08006 -1.27869,1.29659 -6.221206,5.80408 -6.221206,5.80408 l -17.143905,16.44938 c 0,0 -4.663479,5.97913 -6.475523,11.2406 -1.812041,5.26146 -2.287678,10.29222 -1.658459,14.70915 0.219014,1.53742 0.561044,3.17044 1.205787,4.75062 1.207579,2.95961 3.334071,5.93727 6.696868,9.18576 5.158241,4.98291 9.381434,7.04327 9.381434,7.04327 z"
         id="path23263"
         sodipodi:nodetypes="csczscccccssccsccsccscsssssscssssccsssscc"
         inkscape:label="top-left" /><path
         style="display:inline;fill:url(#linearGradient29353);fill-opacity:1;stroke:none;stroke-width:0.1;stroke-linecap:round;stroke-linejoin:round;stop-color:#000000"
         d="m 90.304209,206.34154 c 0,0 -7.11304,-6.04757 -8.61892,-11.50519 -1.50588,-5.45762 -1.64797,-9.66992 1.95331,-16.1038 1.26874,-2.26667 2.54515,-3.74401 3.44538,-4.81929 1.65449,-1.97617 2.65197,-2.59439 4.32963,-4.25873 2.59052,-2.56994 17.871961,-14.49365 25.854461,-22.74056 1.45704,-1.5053 2.10435,-2.06762 3.99489,-4.85191 1.4918,-2.19704 2.52725,-4.93938 3.12694,-7.07493 0.57413,-2.04448 0.97953,-5.91146 0.61498,-8.87639 -0.36455,-2.96493 -1.02401,-4.76552 -2.4266,-7.70895 -1.40259,-2.94343 -3.17028,-5.15457 -4.79636,-7.2086 -1.62608,-2.05403 -3.29056,-4.04717 -5.39985,-6.07117 -0.82616,-0.79275 -1.63338,-1.39146 -2.28983,-1.93163 -0.89529,-0.73671 -1.51016,-1.28017 -1.51016,-1.28017 0,0 -1.94769,-1.70167 -1.94756,-4.799555 4e-5,-0.75578 0.116,-1.59467 0.40447,-2.51223 0.58199,-2.2563 2.15461,-3.36998 2.88138,-4.16332 1.48627,-1.63928 5.17908,-4.07811 7.20918,-6.889804 1.06071,-1.469094 2.31831,-3.32742 2.40283,-5.964675 0.15457,-4.823346 -1.79108,-8.101557 -3.57708,-10.077204 -1.46657,-1.62231 -2.17953,-1.994719 -2.8255,-2.366309 -0.98107,-0.564354 -2.16347,-0.698918 -3.28254,-0.868225 -0.87883,-0.132962 -2.56403,-0.307117 -3.71128,-0.245504 -1.04245,0.05599 -1.59349,0.342764 -1.59349,0.342764 0,0 2.84178,-0.29863 5.03829,0.555441 0.84004,0.326636 1.61784,0.776591 2.16291,1.396412 0.94528,1.049645 1.12855,2.536113 1.13777,3.543466 0.006,1.022024 -0.13417,2.485724 -0.88456,4.133125 -0.6648,1.459538 -1.77869,3.222518 -3.5343,5.602473 -1.51167,2.049254 -2.48779,4.146397 -3.11627,6.05132 -1.53083,4.01161 -1.16336,8.35298 -0.13129,11.80707 0.43776,1.43393 1.04829,2.911005 1.87908,3.947085 1.60189,1.99771 3.15221,3.55707 4.30808,4.91094 1.15587,1.35386 1.88027,2.57144 2.56766,3.93615 0.6874,1.36471 1.50575,2.75176 1.99511,4.73921 0.76369,3.10159 0.59755,6.39857 -0.56224,8.95326 -1.26734,2.79159 -2.8241,4.62386 -4.33566,6.48652 -1.89343,2.33322 -3.93859,4.35144 -6.54783,6.73005 -3.26862,2.9797 -12.809529,11.79781 -18.907628,17.6403 -2.742107,2.62717 -4.426081,4.26497 -5.235721,5.37155 -1.480798,2.02389 -4.296421,5.91343 -5.917657,10.62227 -0.672899,1.95442 -1.314921,3.67858 -1.634542,6.48649 -0.319623,2.80791 -0.338902,6.04841 0.124816,9.46835 0.192024,1.4162 0.633929,2.91439 1.505485,4.58309 0.72298,1.38423 1.741612,2.88578 3.158513,4.55517 7.249783,8.54166 12.691703,10.45564 12.691703,10.45564 z"
         id="path21623"
         sodipodi:nodetypes="cssssssszzzsscsccscsssscsccssccszzssssssszsssc"
         inkscape:label="top-right" /></g><g
       id="g38901"
       inkscape:label="bottom"
       style="display:inline"
       transform="translate(4.4681167e-4,-1.294e-4)"><path
         style="display:inline;opacity:1;fill:url(#linearGradient6047);fill-opacity:1;stroke:none;stroke-width:0.079375;stroke-linecap:round;stroke-linejoin:round;stroke-dasharray:none;stroke-opacity:1"
         d="m 119.37867,220.55235 c 0,0 2.86524,-1.13428 5.87299,-3.09987 2.46849,-1.61318 4.93304,-3.85769 6.83935,-5.88688 3.73455,-3.97526 6.80297,-7.64511 9.55131,-12.6887 1.28954,-2.36647 2.95806,-5.97036 3.36157,-8.54354 0.91987,-5.86599 -0.31816,-9.52659 -1.6487,-12.43905 -0.85692,-1.87575 -1.61524,-3.27213 -3.4552,-5.47566 -1.23003,-1.47308 -2.31491,-2.66864 -3.76351,-3.9295 -3.69421,-3.21542 -8.53431,-6.00417 -13.96038,-9.52379 -3.91988,-2.54263 -9.948,-6.83254 -15.14073,-10.78678 -4.81388,-3.66576 -7.982596,-6.54735 -10.368252,-9.15232 -2.385656,-2.60497 -4.752223,-5.20265 -6.80091,-10.74031 -2.048687,-5.53766 -1.27133,-9.56838 0.75174,-15.70975 1.37564,-4.176 4.46272,-9.22503 4.46272,-9.22503 0,0 -4.03069,4.4946 -5.42309,6.99163 -0.63104,1.13164 -1.79376,3.04059 -2.81345,5.33557 -1.230301,2.76901 -2.323801,6.11189 -2.959531,9.48545 -0.43361,2.30102 -0.75707,4.5546 -0.77901,6.77885 -0.0369,3.73951 0.73225,7.38605 1.95997,10.97235 1.957971,5.71942 5.801391,12.35079 13.618411,18.26895 3.183812,2.41042 7.852282,6.23199 12.353822,9.43262 6.55079,4.65766 12.74806,8.51378 13.50195,9.05583 1.27196,0.91455 8.41392,6.91802 9.66756,11.10172 1.25364,4.1837 0.68487,6.58589 0.19397,8.609 -0.4909,2.02311 -0.6714,3.94249 -2.71852,7.60196 -2.04712,3.65948 -4.57554,6.95418 -6.48047,8.8153 -1.90493,1.86111 -5.82361,4.75195 -5.82361,4.75195 z"
         id="path156"
         sodipodi:nodetypes="cssssssssszzszcsssssssszzzc"
         inkscape:label="bottom-right" /><path
         style="display:inline;opacity:1;fill:url(#linearGradient13242);fill-opacity:1;stroke:none;stroke-width:0.1;stroke-linecap:round;stroke-linejoin:round;stop-color:#000000"
         d="m 95.091156,103.35425 c 0,0 -2.515193,2.92796 -3.852379,4.75866 -1.337186,1.83069 -2.948736,4.70331 -3.974425,6.90234 -0.660783,1.41669 -1.561662,3.38573 -2.393357,6.29305 -0.459283,1.6055 -0.907552,3.45677 -1.239732,5.76467 -0.288633,2.00535 -0.469812,4.18701 -0.377656,6.36432 0.146827,3.46896 1.036459,6.98896 2.076,9.90653 0.418689,1.17509 0.775627,2.0093 1.31013,3.18283 0.534502,1.17353 1.810034,3.54025 3.108739,5.41622 1.361136,1.96615 3.221301,4.0654 5.187276,5.9895 1.965975,1.92409 1.238164,1.21186 6.732858,5.38315 5.4947,4.1713 15.07746,11.00896 20.05249,14.35533 3.20028,2.11617 5.5195,3.92103 8.57449,6.76351 2.30811,2.4466 3.30879,4.40005 3.30879,4.40005 0,0 1.17891,1.98701 1.44195,5.11196 0.30587,4.12209 -0.89078,7.88272 -2.39906,11.39339 -1.02068,2.40777 -2.26502,4.40084 -3.56618,6.18368 -1.1236,1.53955 -2.25121,2.79088 -3.8348,4.32651 -0.98091,0.95121 -1.93872,1.69889 -2.66445,2.29566 -2.41372,1.98481 -3.19268,2.40982 -3.19268,2.40982 0,0 1.32666,-1.12444 2.37,-2.63026 1.08964,-1.57265 2.30176,-3.21919 3.06593,-4.87096 0.64211,-1.38794 1.4258,-4.02917 1.44316,-7.01181 0.0116,-1.98428 -0.26448,-4.69433 -1.74841,-7.98669 -3.71447,-8.24122 -14.87309,-14.80889 -14.87309,-14.80889 0,0 -10.436121,-7.17893 -15.502561,-11.09879 -2.581131,-1.997 -5.36193,-4.07893 -7.809819,-6.29064 -2.357014,-2.12961 -4.656189,-4.89157 -5.669646,-6.78982 -1.589577,-2.97736 -3.780276,-7.102 -4.964676,-11.9165 -0.762657,-3.10014 -1.099029,-6.49111 -0.562483,-10.06001 1.369795,-9.11136 5.017495,-17.62191 11.60072,-25.68003 6.583227,-8.05812 8.352871,-8.05678 8.352871,-8.05678 z"
         id="path12909"
         sodipodi:nodetypes="czssssszszzcccccssscsssscssssssc"
         inkscape:label="bottom-left" /></g></g></svg>
