<?xml version="1.0" encoding="UTF-8"?>
<svg width="99.736mm" height="52mm" version="1.1" viewBox="0 0 99.736 52" xmlns="http://www.w3.org/2000/svg"><g stroke-width="0" text-anchor="middle"><g font-family="sans"><g font-size="4.4036px" font-weight="bold"><text x="93.45961" y="4.8073812" text-align="center" xml:space="preserve"><tspan x="93.45961" y="4.8073812" stroke-width="0">8</tspan><tspan x="93.45961" y="10.311818"/></text><text x="79.159851" y="4.8051786" text-align="center" xml:space="preserve"><tspan x="79.159851" y="4.8051786" stroke-width="0">9</tspan><tspan x="79.159851" y="10.309617"/></text><text x="64.796257" y="4.8117852" text-align="center" xml:space="preserve"><tspan x="64.796257" y="4.8117852" stroke-width="0">10</tspan><tspan x="64.796257" y="10.316223"/></text><text x="50.758492" y="4.8095822" text-align="center" xml:space="preserve"><tspan x="50.758492" y="4.8095822" stroke-width="0">11</tspan><tspan x="50.758492" y="10.31402"/></text><text x="36.174713" y="4.8316011" text-align="center" xml:space="preserve"><tspan x="36.174713" y="4.8316011" stroke-width="0">12</tspan><tspan x="36.174713" y="10.336039"/></text><text x="21.883762" y="4.8095827" text-align="center" xml:space="preserve"><tspan x="21.883762" y="4.8095827" stroke-width="0">13</tspan><tspan x="21.883762" y="10.31402"/></text><text x="7.5267553" y="4.8095827" text-align="center" xml:space="preserve"><tspan x="7.5267553" y="4.8095827" fill="#000000" font-size="4.4036px" stroke-width="0">14</tspan></text><text x="93.470619" y="50.334576" text-align="center" xml:space="preserve"><tspan x="93.470619" y="50.334576" fill="#000000" font-size="4.4036px" stroke-width="0">7</tspan></text><text x="79.146637" y="50.330177" text-align="center" xml:space="preserve"><tspan x="79.146637" y="50.330177" fill="#000000" font-size="4.4036px" stroke-width="0">6</tspan></text><text x="64.838074" y="50.312561" text-align="center" xml:space="preserve"><tspan x="64.838074" y="50.312561" fill="#000000" font-size="4.4036px" stroke-width="0">5</tspan></text><text x="50.538307" y="50.334583" text-align="center" xml:space="preserve"><tspan x="50.538307" y="50.334583" fill="#000000" font-size="4.4036px" stroke-width="0">4</tspan></text></g><g font-weight="bold"><text transform="scale(.99307 1.007)" x="36.489731" y="50.093864" font-size="4.7891px" text-align="center" xml:space="preserve"><tspan x="36.489731" y="50.093864" stroke-width="0">3</tspan><tspan x="36.489731" y="56.080261"/></text><text x="21.914583" y="50.356598" font-size="4.4036px" text-align="center" xml:space="preserve"><tspan x="21.914583" y="50.356598" stroke-width="0">2</tspan><tspan x="21.914583" y="55.861034"/></text><text x="7.839406" y="50.334576" font-size="4.4036px" text-align="center" xml:space="preserve"><tspan x="7.839406" y="50.334576" fill="#000000" font-size="4.4036px" stroke-width="0">1</tspan></text></g><text x="7.4262643" y="11.514224" font-size="4.6947px" text-align="center" xml:space="preserve"><tspan x="7.4262643" y="11.514224" fill="#000000" font-family="sans-serif" font-size="4.6947px" font-weight="bold" stroke-width="0">V<tspan baseline-shift="sub" fill="#000000" font-size="4.6947px" stroke-width="0">CC</tspan></tspan></text></g><text x="92.740509" y="43.169094" font-family="sans-serif" font-size="4.6947px" font-weight="bold" text-align="center" xml:space="preserve"><tspan x="92.740509" y="43.169094" fill="#000000" stroke-width="0">GND</tspan></text></g><path d="m64.845 6.275v10.22h2.5896m14.336 5.1636v-0.02503c-0.78808-1.5153-1.2432-3.2654-1.2432-5.1386 0-1.8736 0.45516-3.6237 1.2432-5.1382v-0.02405h-4.8275c-3.4441 0-6.451 2.0794-8.0638 5.162 1.6128 3.0823 4.6197 5.1636 8.0638 5.1636zm-14.336-5.164c0-0.43851 0.32256-0.79439 0.71679-0.79439s0.71677 0.35588 0.71677 0.79439c0 0.4385-0.32254 0.7944-0.71677 0.7944s-0.71679-0.3559-0.71679-0.7944zm11.717-10.219v2.5559h7.1496l-1e-5 4.9556h-5.4624m12.619-7.5115v12.93l-12.632-2e-6m-58.9-12.93v10.22h2.5896m14.336 5.1636v-0.02503c-0.78808-1.5153-1.2432-3.2654-1.2432-5.1386 0-1.8736 0.45516-3.6237 1.2432-5.1382v-0.02405h-4.8275c-3.4441 0-6.451 2.0794-8.0638 5.162 1.6128 3.0823 4.6197 5.1636 8.0638 5.1636zm-14.336-5.164c0-0.43851 0.32256-0.79439 0.71679-0.79439s0.71677 0.35588 0.71677 0.79439c0 0.4385-0.32254 0.7944-0.71677 0.7944s-0.71679-0.3559-0.71679-0.7944zm11.717-10.219v2.5559h7.1496l-1e-5 4.9556h-5.4624m12.619-7.5115v12.93l-12.632-2e-6m12.632 26.519v-10.22h2.5896m14.336-5.1636c-1.652 3.1773-1.6535 7.1486 0 10.326-1.9798-0.03259-3.9659 0.0745-5.9407-0.07322-2.9899-0.37662-5.5936-2.4424-6.9506-5.0888 1.556-3.0909 4.8753-5.3305 8.3931-5.1636 1.4994-6.5e-5 2.9988-1.29e-4 4.4982-1.94e-4zm-14.336 5.164c-0.0211 1.3651 2.042 0.64714 1.3107-0.44405-0.37054-0.67299-1.3644-0.27301-1.3107 0.44405zm11.717 10.219v-2.5559h7.1496c0-1.6519-1e-5 -3.3037-1e-5 -4.9556h-5.4624m12.619 7.5115v-12.93c-4.2107 1e-6 -8.4213 1e-6 -12.632 2e-6m-58.9 12.93v-10.22h2.5896m14.336-5.1636v0.02503c-0.78808 1.5153-1.2432 3.2654-1.2432 5.1386 0 1.8736 0.45516 3.6237 1.2432 5.1382v0.02405h-4.8275c-3.4441 0-6.451-2.0794-8.0638-5.162 1.6128-3.0823 4.6197-5.1636 8.0638-5.1636zm-14.336 5.164c0 0.43851 0.32256 0.79439 0.71679 0.79439s0.71677-0.35588 0.71677-0.79439c0-0.4385-0.32254-0.7944-0.71677-0.7944s-0.71679 0.3559-0.71679 0.7944zm11.717 10.219v-2.5559h7.1496l-1e-5 -4.9556h-5.4624m12.619 7.5115v-12.93l-12.632 2e-6m-19.351 12.93h6.7404v6.075h-6.7404zm14.306 0h6.7404v6.075h-6.7404zm14.306-7.32e-4h6.7407v6.0757h-6.7407zm14.306 7.32e-4h6.7404v6.075h-6.7404zm14.306 0h6.7404v6.075h-6.7404zm14.306 0h6.7404v6.075h-6.7404zm14.306 0h6.7404v6.075h-6.7404zm-85.838-45.525h6.7404v6.075h-6.7404zm14.306 4.7e-7h6.7404v6.075h-6.7404zm14.306 0h6.7404v6.075h-6.7404zm14.306 0h6.7404v6.075h-6.7404zm14.306 0h6.7404v6.075h-6.7404zm14.306 0h6.7404v6.075h-6.7404zm14.306 0h6.7404v6.075h-6.7404zm-89.887 45.525h99.336v-39.45h-99.336v16.347a3.9894 3.381 0 0 1 0.15908-0.0021 3.9894 3.381 0 0 1 3.9898 3.3804 3.9894 3.381 0 0 1-3.9898 3.3814 3.9894 3.381 0 0 1-0.15908-0.0044z" fill="none" stroke="#000" stroke-width=".4"/><text x="54.733372" y="27.23605" fill="#000000" font-family="sans-serif" font-size="6.5726px" font-weight="bold" stroke-width="0" text-align="center" text-anchor="middle" xml:space="preserve"><tspan x="54.733372" y="27.23605" fill="#000000" font-family="serif" font-size="6.5726px" font-weight="bold" stroke-width="0">7402</tspan></text></svg>
