<?xml version="1.0" encoding="UTF-8"?>
<svg width="99.736mm" height="52mm" version="1.1" viewBox="0 0 99.736 52" xmlns="http://www.w3.org/2000/svg">
	<g transform="translate(-252.09 -31.877)">
		<g transform="translate(251.96 31.524)" stroke="#000">
			<g>
				<g stroke="#000" stroke-width=".4">
					<path d="m0.3327 46.078h99.336v-39.45h-99.336v16.347a3.9894 3.381 0 0 1 0.15908-0.0021 3.9894 3.381 0 0 1 3.9898 3.3804 3.9894 3.381 0 0 1-3.9898 3.3814 3.9894 3.381 0 0 1-0.15908-0.0044z" fill="none"/>
					<g>
						<g transform="translate(0 .21984)">
							<rect x="90.22" y=".3327" width="6.7404" height="6.075" fill="none" stroke="#000" stroke-width=".4"/>
							<text x="93.592308" y="4.9400768" fill="#000000" font-family="sans" font-size="4.4036px" font-weight="bold" stroke="none" stroke-width="0" text-align="center" text-anchor="middle" xml:space="preserve"><tspan x="93.592308" y="4.9400768" stroke="none" stroke-width="0">8</tspan><tspan x="93.592308" y="10.444514"/></text>
						</g>
						<g transform="translate(3.4968e-6 .066304)">
							<rect x="75.914" y=".48623" width="6.7404" height="6.075" fill="none" stroke="#000" stroke-width=".4"/>
							<text x="79.292549" y="5.0914073" fill="#000000" font-family="sans" font-size="4.4036px" font-weight="bold" stroke="none" stroke-width="0" text-align="center" text-anchor="middle" xml:space="preserve"><tspan x="79.292549" y="5.0914073" stroke="none" stroke-width="0">9</tspan><tspan x="79.292549" y="10.595845"/></text>
						</g>
						<g transform="translate(6.9936e-6 .066304)">
							<rect x="61.607" y=".48623" width="6.7404" height="6.075" fill="none" stroke="#000" stroke-width=".4"/>
							<text x="64.928947" y="5.0980144" fill="#000000" font-family="sans" font-size="4.4036px" font-weight="bold" stroke="none" stroke-width="0" text-align="center" text-anchor="middle" xml:space="preserve"><tspan x="64.928947" y="5.0980144" stroke="none" stroke-width="0">10</tspan><tspan x="64.928947" y="10.602452"/></text>
						</g>
						<g transform="translate(1.049e-5 .066304)">
							<rect x="47.301" y=".48623" width="6.7404" height="6.075" fill="none" stroke="#000" stroke-width=".4"/>
							<text x="50.891182" y="5.0958109" fill="#000000" font-family="sans" font-size="4.4036px" font-weight="bold" stroke="none" stroke-width="0" text-align="center" text-anchor="middle" xml:space="preserve"><tspan x="50.891182" y="5.0958109" stroke="none" stroke-width="0">11</tspan><tspan x="50.891182" y="10.600248"/></text>
						</g>
						<g transform="translate(6.3578e-6 .066304)">
							<rect x="32.994" y=".48623" width="6.7404" height="6.075" fill="none" stroke="#000" stroke-width=".4"/>
							<text x="36.307407" y="5.1178303" fill="#000000" font-family="sans" font-size="4.4036px" font-weight="bold" stroke="none" stroke-width="0" text-align="center" text-anchor="middle" xml:space="preserve"><tspan x="36.307407" y="5.1178303" stroke="none" stroke-width="0">12</tspan><tspan x="36.307407" y="10.622268"/></text>
						</g>
						<g transform="translate(-1.5895e-6 .066303)">
							<rect x="18.688" y=".48623" width="6.7404" height="6.075" fill="none" stroke="#000" stroke-width=".4"/>
							<text x="22.016464" y="5.0958123" fill="#000000" font-family="sans" font-size="4.4036px" font-weight="bold" stroke="none" stroke-width="0" text-align="center" text-anchor="middle" xml:space="preserve"><tspan x="22.016464" y="5.0958123" stroke="none" stroke-width="0">13</tspan><tspan x="22.016464" y="10.60025"/></text>
						</g>
						<g>
							<rect x="4.3817" y=".55253" width="6.7404" height="6.075" fill="none" stroke="#000" stroke-width=".4"/>
							<text x="7.6594553" y="5.1621156" fill="#000000" font-family="sans" font-size="4.4036px" font-weight="bold" stroke="none" stroke-width="0" text-align="center" text-anchor="middle" xml:space="preserve"><tspan x="7.6594553" y="5.1621156" fill="#000000" font-size="4.4036px" stroke="none" stroke-width="0">14</tspan></text>
						</g>
					</g>
					<g transform="translate(0 -.10663)">
						<g>
							<rect x="90.22" y="46.184" width="6.7404" height="6.075" fill="none" stroke="#000" stroke-width=".4"/>
							<text x="93.603317" y="50.793743" fill="#000000" font-family="sans" font-size="4.4036px" font-weight="bold" stroke="none" stroke-width="0" text-align="center" text-anchor="middle" xml:space="preserve"><tspan x="93.603317" y="50.793743" fill="#000000" font-size="4.4036px" stroke="none" stroke-width="0">7</tspan></text>
						</g>
						<g>
							<rect x="75.914" y="46.184" width="6.7404" height="6.075" fill="none" stroke="#000" stroke-width=".4"/>
							<text x="79.279335" y="50.789345" fill="#000000" font-family="sans" font-size="4.4036px" font-weight="bold" stroke="none" stroke-width="0" text-align="center" text-anchor="middle" xml:space="preserve"><tspan x="79.279335" y="50.789345" fill="#000000" font-size="4.4036px" stroke="none" stroke-width="0">6</tspan></text>
						</g>
						<g>
							<rect x="61.607" y="46.184" width="6.7404" height="6.075" fill="none" stroke="#000" stroke-width=".4"/>
							<text x="64.970772" y="50.771729" fill="#000000" font-family="sans" font-size="4.4036px" font-weight="bold" stroke="none" stroke-width="0" text-align="center" text-anchor="middle" xml:space="preserve"><tspan x="64.970772" y="50.771729" fill="#000000" font-size="4.4036px" stroke="none" stroke-width="0">5</tspan></text>
						</g>
						<g>
							<rect x="47.301" y="46.184" width="6.7404" height="6.075" fill="none" stroke="#000" stroke-width=".4"/>
							<text x="50.671009" y="50.793751" fill="#000000" font-family="sans" font-size="4.4036px" font-weight="bold" stroke="none" stroke-width="0" text-align="center" text-anchor="middle" xml:space="preserve"><tspan x="50.671009" y="50.793751" fill="#000000" font-size="4.4036px" stroke="none" stroke-width="0">4</tspan></text>
						</g>
						<g transform="matrix(1.0004 0 0 .99633 -.012915 .16553)">
							<rect x="32.996" y="46.187" width="6.7383" height="6.098" fill="none" stroke="#000" stroke-width=".4"/>
							<text transform="scale(.99107 1.009)" x="36.697208" y="50.469147" fill="#000000" font-family="sans" font-size="4.7971px" font-weight="bold" stroke="none" stroke-width="0" text-align="center" text-anchor="middle" xml:space="preserve"><tspan x="36.697208" y="50.469147" stroke="none" stroke-width="0">3</tspan><tspan x="36.697208" y="56.465485"/></text>
						</g>
						<g>
							<rect x="18.688" y="46.184" width="6.7404" height="6.075" fill="none" stroke="#000" stroke-width=".4"/>
							<text x="22.047283" y="50.815765" fill="#000000" font-family="sans" font-size="4.4036px" font-weight="bold" stroke="none" stroke-width="0" text-align="center" text-anchor="middle" xml:space="preserve"><tspan x="22.047283" y="50.815765" stroke="none" stroke-width="0">2</tspan><tspan x="22.047283" y="56.320202"/></text>
						</g>
						<g>
							<text x="7.972106" y="50.793743" fill="#000000" font-family="sans" font-size="4.4036px" font-weight="bold" stroke="none" stroke-width="0" text-align="center" text-anchor="middle" xml:space="preserve"><tspan x="7.972106" y="50.793743" fill="#000000" font-size="4.4036px" stroke="none" stroke-width="0">1</tspan></text>
							<rect x="4.3817" y="46.184" width="6.7404" height="6.075" fill="none" stroke="#000" stroke-width=".4"/>
						</g>
					</g>
				</g>
				<g transform="translate(0 -.05268)" fill="#000000" stroke="none" stroke-width="0" text-anchor="middle">
					<text x="7.5589643" y="11.919437" font-family="sans" font-size="4.6947px" text-align="center" xml:space="preserve"><tspan x="7.5589643" y="11.919437" fill="#000000" font-family="sans-serif" font-size="4.6947px" font-weight="bold" stroke="none" stroke-width="0">V<tspan baseline-shift="sub" fill="#000000" font-size="4.6947px" stroke="none" stroke-width="0">CC</tspan></tspan></text>
					<text x="92.873207" y="43.574306" font-family="sans-serif" font-size="4.6947px" font-weight="bold" text-align="center" xml:space="preserve"><tspan x="92.873207" y="43.574306" fill="#000000" stroke="none" stroke-width="0">GND</tspan></text>
				</g>
			</g>
			<g transform="translate(-251.96 -31.524)" fill="none" stroke="#000" stroke-width=".4">
				<path d="m259.71 77.602v-10.22h2.5896m14.336-5.1636v0.02503c-0.78808 1.5153-1.2432 3.2654-1.2432 5.1386 0 1.8736 0.45516 3.6237 1.2432 5.1382v0.02405h-4.8275c-3.4441 0-6.451-2.0794-8.0638-5.162 1.6128-3.0823 4.6197-5.1636 8.0638-5.1636zm-14.336 5.164c0 0.43851 0.32256 0.79439 0.71679 0.79439s0.71677-0.35588 0.71677-0.79439c0-0.4385-0.32254-0.7944-0.71677-0.7944s-0.71679 0.3559-0.71679 0.7944zm11.717 10.219v-2.5559h7.1496l-1e-5 -4.9556h-5.4624m12.619 7.5115v-12.93l-12.632 2e-6"/>
				<path d="m302.63 77.602v-10.22h2.5896m14.336-5.1636c-1.652 3.1773-1.6535 7.1486 0 10.326-1.9798-0.03259-3.9659 0.0745-5.9407-0.07322-2.9899-0.37662-5.5936-2.4424-6.9506-5.0888 1.556-3.0909 4.8753-5.3305 8.3931-5.1636 1.4994-6.5e-5 2.9988-1.29e-4 4.4982-1.94e-4zm-14.336 5.164c-0.0211 1.3651 2.042 0.64714 1.3107-0.44405-0.37054-0.67299-1.3644-0.27301-1.3107 0.44405zm11.717 10.219v-2.5559h7.1496c0-1.6519-1e-5 -3.3037-1e-5 -4.9556h-5.4624m12.619 7.5115v-12.93c-4.2107 1e-6 -8.4213 1e-6 -12.632 2e-6"/>
				<path d="m274.02 38.152v10.22h2.5896m14.336 5.1636v-0.02503c-0.78808-1.5153-1.2432-3.2654-1.2432-5.1386 0-1.8736 0.45516-3.6237 1.2432-5.1382v-0.02405h-4.8275c-3.4441 0-6.451 2.0794-8.0638 5.162 1.6128 3.0823 4.6197 5.1636 8.0638 5.1636zm-14.336-5.164c0-0.43851 0.32256-0.79439 0.71679-0.79439s0.71677 0.35588 0.71677 0.79439c0 0.4385-0.32254 0.7944-0.71677 0.7944s-0.71679-0.3559-0.71679-0.7944zm11.717-10.219v2.5559h7.1496l-1e-5 4.9556h-5.4624m12.619-7.5115v12.93l-12.632-2e-6"/>
				<path d="m316.94 38.152v10.22h2.5896m14.336 5.1636v-0.02503c-0.78808-1.5153-1.2432-3.2654-1.2432-5.1386 0-1.8736 0.45516-3.6237 1.2432-5.1382v-0.02405h-4.8275c-3.4441 0-6.451 2.0794-8.0638 5.162 1.6128 3.0823 4.6197 5.1636 8.0638 5.1636zm-14.336-5.164c0-0.43851 0.32256-0.79439 0.71679-0.79439s0.71677 0.35588 0.71677 0.79439c0 0.4385-0.32254 0.7944-0.71677 0.7944s-0.71679-0.3559-0.71679-0.7944zm11.717-10.219v2.5559h7.1496l-1e-5 4.9556h-5.4624m12.619-7.5115v12.93l-12.632-2e-6"/>
			</g>
		</g>
		<text x="306.82666" y="59.113029" fill="#000000" font-family="sans-serif" font-size="6.5726px" font-weight="bold" stroke-width="0" text-align="center" text-anchor="middle" xml:space="preserve"><tspan x="306.82666" y="59.113029" fill="#000000" font-family="serif" font-size="6.5726px" font-weight="bold" stroke-width="0">7402</tspan></text>
	</g>
</svg>
