<?xml version="1.0" encoding="UTF-8"?>
<svg width="99.736mm" height="52mm" version="1.1" viewBox="0 0 99.736 52" xmlns="http://www.w3.org/2000/svg"><g stroke-width="0" text-anchor="middle"><g font-family="sans"><g font-size="4.4036px" font-weight="bold"><text x="93.45961" y="4.807384" text-align="center" xml:space="preserve"><tspan x="93.45961" y="4.807384" stroke-width="0">8</tspan><tspan x="93.45961" y="10.311822"/></text><text x="79.159859" y="4.805182" text-align="center" xml:space="preserve"><tspan x="79.159859" y="4.805182" stroke-width="0">9</tspan><tspan x="79.159859" y="10.30962"/></text><text x="64.796257" y="4.8117881" text-align="center" xml:space="preserve"><tspan x="64.796257" y="4.8117881" stroke-width="0">10</tspan><tspan x="64.796257" y="10.316226"/></text><text x="50.758495" y="4.8095856" text-align="center" xml:space="preserve"><tspan x="50.758495" y="4.8095856" stroke-width="0">11</tspan><tspan x="50.758495" y="10.314023"/></text><text x="36.174717" y="4.831604" text-align="center" xml:space="preserve"><tspan x="36.174717" y="4.831604" stroke-width="0">12</tspan><tspan x="36.174717" y="10.336041"/></text><text x="21.883766" y="4.8095856" text-align="center" xml:space="preserve"><tspan x="21.883766" y="4.8095856" stroke-width="0">13</tspan><tspan x="21.883766" y="10.314023"/></text><text x="7.5267591" y="4.8095856" text-align="center" xml:space="preserve"><tspan x="7.5267591" y="4.8095856" fill="#000000" font-size="4.4036px" stroke-width="0">14</tspan></text><text x="93.470619" y="50.334579" text-align="center" xml:space="preserve"><tspan x="93.470619" y="50.334579" fill="#000000" font-size="4.4036px" stroke-width="0">7</tspan></text><text x="79.146637" y="50.330181" text-align="center" xml:space="preserve"><tspan x="79.146637" y="50.330181" fill="#000000" font-size="4.4036px" stroke-width="0">6</tspan></text><text x="64.838074" y="50.312565" text-align="center" xml:space="preserve"><tspan x="64.838074" y="50.312565" fill="#000000" font-size="4.4036px" stroke-width="0">5</tspan></text><text x="50.538315" y="50.334587" text-align="center" xml:space="preserve"><tspan x="50.538315" y="50.334587" fill="#000000" font-size="4.4036px" stroke-width="0">4</tspan></text></g><g font-weight="bold"><text transform="scale(.99307 1.007)" x="36.489735" y="50.093868" font-size="4.7891px" text-align="center" xml:space="preserve"><tspan x="36.489735" y="50.093868" stroke-width="0">3</tspan><tspan x="36.489735" y="56.080261"/></text><text x="21.914587" y="50.356602" font-size="4.4036px" text-align="center" xml:space="preserve"><tspan x="21.914587" y="50.356602" stroke-width="0">2</tspan><tspan x="21.914587" y="55.861038"/></text><text x="7.8394098" y="50.334579" font-size="4.4036px" text-align="center" xml:space="preserve"><tspan x="7.8394098" y="50.334579" fill="#000000" font-size="4.4036px" stroke-width="0">1</tspan></text></g><text x="7.4262681" y="11.514228" font-size="4.6947px" text-align="center" xml:space="preserve"><tspan x="7.4262681" y="11.514228" fill="#000000" font-family="sans-serif" font-size="4.6947px" font-weight="bold" stroke-width="0">V<tspan baseline-shift="sub" fill="#000000" font-size="4.6947px" stroke-width="0">CC</tspan></tspan></text></g><text x="92.740509" y="43.169098" font-family="sans-serif" font-size="4.6947px" font-weight="bold" text-align="center" xml:space="preserve"><tspan x="92.740509" y="43.169098" fill="#000000" stroke-width="0">GND</tspan></text></g><path d="m62.27 40.667v-0.0246c0.75801-1.5138 1.1958-3.2621 1.1958-5.1338 0-1.8713-0.43778-3.6196-1.1958-5.1326v-0.02381h4.6428c3.3126 0 6.2047 2.0772 7.7559 5.1564-1.5512 3.0796-4.4433 5.1584-7.7559 5.1584zm2.5747 5.0576v-2.5559h-7.1496l1e-6 -4.9556h5.4624m-12.619 7.5115 4e-6 -12.93 12.632 2e-6m11.498 2.7145 4.4824-0.0046-2e-6 10.221m-59.8-5.0578v-0.0246c0.75801-1.5138 1.1958-3.2621 1.1958-5.1338 0-1.8713-0.43778-3.6196-1.1958-5.1326v-0.02381h4.6428c3.3126 0 6.2047 2.0772 7.7559 5.1564-1.5512 3.0796-4.4433 5.1584-7.7559 5.1584zm2.5747 5.0576v-2.5559h-7.1496l1e-6 -4.9556h5.4624m-12.619 7.5115 3.2e-6 -12.93 12.632 2e-6m11.498 2.7145 4.4824-0.0046-2e-6 10.221m40.344-34.393v0.0246c0.75801 1.5138 1.1958 3.2621 1.1958 5.1338 0 1.8713-0.43778 3.6196-1.1958 5.1326v0.02381h4.6428c3.3126 0 6.2047-2.0772 7.7559-5.1564-1.5512-3.0796-4.4433-5.1584-7.7559-5.1584zm2.5747-5.0576v2.5559h-7.1496l1e-6 4.9556h5.4624m-12.619-7.5115 4e-6 12.93 12.632-2e-6m11.498-2.7145 4.4824 0.0046-2e-6 -10.221m-59.8 5.0578v0.0246c0.75801 1.5138 1.1958 3.2621 1.1958 5.1338 0 1.8713-0.43778 3.6196-1.1958 5.1326v0.02381h4.6428c3.3126 0 6.2047-2.0772 7.7559-5.1564-1.5512-3.0796-4.4433-5.1584-7.7559-5.1584zm2.5747-5.0576v2.5559h-7.1496l1e-6 4.9556h5.4624m-12.619-7.5115 4e-6 12.93 12.632-2e-6m11.498-2.7145 4.4824 0.0046-2e-6 -10.221m-46.289 39.45h6.7404v6.075h-6.7404zm14.306 0h6.7404v6.075h-6.7404zm14.306-7.32e-4h6.7407v6.0757h-6.7407zm14.306 7.32e-4h6.7404v6.075h-6.7404zm14.306 0h6.7404v6.075h-6.7404zm14.306 0h6.7404v6.075h-6.7404zm14.306 0h6.7404v6.075h-6.7404zm-85.838-45.525h6.7404v6.075h-6.7404zm14.306 4.6e-7h6.7404v6.075h-6.7404zm14.306 2e-8h6.7404v6.075h-6.7404zm14.306-2e-8h6.7404v6.075h-6.7404zm14.306 2e-8h6.7404v6.075h-6.7404zm14.306-2e-8h6.7404v6.075h-6.7404zm14.306 2e-8h6.7404v6.075h-6.7404zm-89.887 45.525h99.336v-39.45h-99.336v16.347a3.9894 3.381 0 0 1 0.15908-0.0021 3.9894 3.381 0 0 1 3.9898 3.3804 3.9894 3.381 0 0 1-3.9898 3.3814 3.9894 3.381 0 0 1-0.15908-0.0044z" fill="none" stroke="#000" stroke-width=".4"/><text x="54.73354" y="27.236052" fill="#000000" font-family="sans-serif" font-size="6.5726px" font-weight="bold" stroke-width="0" text-align="center" text-anchor="middle" xml:space="preserve"><tspan x="54.73354" y="27.236052" fill="#000000" font-family="serif" font-size="6.5726px" font-weight="bold" stroke-width="0">7432</tspan></text></svg>
