<?xml version="1.0" encoding="UTF-8"?>
<svg width="99.736mm" height="52mm" version="1.1" viewBox="0 0 99.736 52" xmlns="http://www.w3.org/2000/svg"><g font-family="sans" font-weight="bold" stroke-width="0" text-anchor="middle"><g font-size="4.4036px"><text x="93.45961" y="4.8073816" text-align="center" xml:space="preserve"><tspan x="93.45961" y="4.8073816" stroke-width="0">8</tspan><tspan x="93.45961" y="10.311819"/></text><text x="79.159851" y="4.8051796" text-align="center" xml:space="preserve"><tspan x="79.159851" y="4.8051796" stroke-width="0">9</tspan><tspan x="79.159851" y="10.309617"/></text><text x="64.796257" y="4.8117857" text-align="center" xml:space="preserve"><tspan x="64.796257" y="4.8117857" stroke-width="0">10</tspan><tspan x="64.796257" y="10.316223"/></text><text x="50.758499" y="4.8095832" text-align="center" xml:space="preserve"><tspan x="50.758499" y="4.8095832" stroke-width="0">11</tspan><tspan x="50.758499" y="10.31402"/></text><text x="36.174721" y="4.8316016" text-align="center" xml:space="preserve"><tspan x="36.174721" y="4.8316016" stroke-width="0">12</tspan><tspan x="36.174721" y="10.33604"/></text><text x="21.883766" y="4.8095832" text-align="center" xml:space="preserve"><tspan x="21.883766" y="4.8095832" stroke-width="0">13</tspan><tspan x="21.883766" y="10.31402"/></text><text x="7.5267596" y="4.8095832" text-align="center" xml:space="preserve"><tspan x="7.5267596" y="4.8095832" fill="#000000" font-size="4.4036px" stroke-width="0">14</tspan></text><text x="93.470619" y="50.334579" text-align="center" xml:space="preserve"><tspan x="93.470619" y="50.334579" fill="#000000" font-size="4.4036px" stroke-width="0">7</tspan></text><text x="79.146637" y="50.330181" text-align="center" xml:space="preserve"><tspan x="79.146637" y="50.330181" fill="#000000" font-size="4.4036px" stroke-width="0">6</tspan></text><text x="64.838074" y="50.312565" text-align="center" xml:space="preserve"><tspan x="64.838074" y="50.312565" fill="#000000" font-size="4.4036px" stroke-width="0">5</tspan></text><text x="50.538315" y="50.334587" text-align="center" xml:space="preserve"><tspan x="50.538315" y="50.334587" fill="#000000" font-size="4.4036px" stroke-width="0">4</tspan></text></g><text transform="scale(.99307 1.007)" x="36.489735" y="50.093868" font-size="4.7891px" text-align="center" xml:space="preserve"><tspan x="36.489735" y="50.093868" stroke-width="0">3</tspan><tspan x="36.489735" y="56.080269"/></text><text x="21.914587" y="50.356602" font-size="4.4036px" text-align="center" xml:space="preserve"><tspan x="21.914587" y="50.356602" stroke-width="0">2</tspan><tspan x="21.914587" y="55.861038"/></text><text x="7.8394103" y="50.334579" font-size="4.4036px" text-align="center" xml:space="preserve"><tspan x="7.8394103" y="50.334579" fill="#000000" font-size="4.4036px" stroke-width="0">1</tspan></text></g><path d="m73.673 33.709h5.4783v12.016m-57.225 0 2e-6 -13.091 40.504-1.4e-5m-54.81 13.091v-15.239l54.81-1e-6m-11.891 15.239-1e-5 -10.942 11.891-1.5e-5m2.4153 10.942-1e-5 -3.6475-6.6471 8e-6v-5.1463l4.2318-5e-6m6.6757 1.345h-6.6757v-9.1345l6.6757-7.03e-4c2.5213 0 4.5676 2.0463 4.5676 4.5676s-2.0463 4.5676-4.5676 4.5676zm18.874-19.985h5.4783v-12.016m-57.225 2e-7 -5e-6 13.091 40.504 1.5e-5m-54.81-13.091v15.239l54.81 1e-6m-11.891-15.239-1.4e-5 10.942 11.891 1.5e-5m2.4153-10.942-3e-6 3.6475-6.6471-8e-6 -6e-6 5.1463 4.2318 5e-6m6.6757-1.345h-6.6757v9.1345l6.6757 7.03e-4c2.5213 0 4.5676-2.0463 4.5676-4.5676s-2.0463-4.5676-4.5676-4.5676zm-79.162 32.001h6.7404v6.075h-6.7404zm14.306 0h6.7404v6.075h-6.7404zm14.306-7.36e-4h6.7407v6.0757h-6.7407zm14.306 7.36e-4h6.7404v6.075h-6.7404zm14.306 0h6.7404v6.075h-6.7404zm14.306 0h6.7404v6.075h-6.7404zm14.306 0h6.7404v6.075h-6.7404zm-85.838-45.525h6.7404v6.075h-6.7404zm14.306 4.8e-7h6.7404v6.075h-6.7404zm14.306 0h6.7404v6.075h-6.7404zm14.306 0h6.7404v6.075h-6.7404zm14.306 0h6.7404v6.075h-6.7404zm14.306 0h6.7404v6.075h-6.7404zm14.306 0h6.7404v6.075h-6.7404zm-89.887 45.525h99.336v-39.45h-99.336v16.347a3.9894 3.381 0 0 1 0.15908-0.0021 3.9894 3.381 0 0 1 3.9898 3.3804 3.9894 3.381 0 0 1-3.9898 3.3814 3.9894 3.381 0 0 1-0.15908-0.0044z" fill="none" stroke="#000" stroke-width=".4"/><g stroke-width="0" text-anchor="middle"><text x="7.4262686" y="11.514225" font-family="sans" font-size="4.6947px" text-align="center" xml:space="preserve"><tspan x="7.4262686" y="11.514225" fill="#000000" font-family="sans-serif" font-size="4.6947px" font-weight="bold" stroke-width="0">V<tspan baseline-shift="sub" fill="#000000" font-size="4.6947px" stroke-width="0">CC</tspan></tspan></text><text x="92.740509" y="43.169094" font-family="sans-serif" font-size="4.6947px" font-weight="bold" text-align="center" xml:space="preserve"><tspan x="92.740509" y="43.169094" fill="#000000" stroke-width="0">GND</tspan></text><text x="49.834904" y="28.34643" font-family="sans-serif" font-size="6.5726px" font-weight="bold" text-align="center" xml:space="preserve"><tspan x="49.834904" y="28.34643" fill="#000000" font-family="serif" font-size="6.5726px" font-weight="bold" stroke-width="0">7421</tspan></text></g></svg>
