<?xml version="1.0" encoding="UTF-8"?>
<svg width="247" height="260" version="1.1" viewBox="0 0 65.2 68.7" xmlns="http://www.w3.org/2000/svg"><g transform="translate(-81.2 -41.8)"><g stroke="#042033"><circle cx="114" cy="77.9" r="31.3" fill="#cfedeb" stroke-linecap="round" stroke-linejoin="round" stroke-width="2.61"/><g fill="#a8d1d7" stroke-width="2.5"><path d="m84.1 65.9h59.5"/><path d="m84.1 89.9h59.5"/><path d="m92.3 101h42.9"/><path d="m92.4 54.9h42.9"/><path d="m82.5 77.9 62.6 6e-6"/></g><g fill="none" stroke-width="2.5"><path d="m114 46.6v62.6"/><path d="m99.6 49.9v56"/><path d="m128 50.4v54.7"/></g></g><g><rect x="91.4" y="48.1" width="43.4" height="11.3" ry="3.67" fill="#77a2b2"/><rect x="91" y="48.5" width="44.1" height="49.9" ry="5.38" fill="none" stroke="#042033" stroke-linecap="round" stroke-linejoin="round" stroke-width="2.34"/><g transform="translate(0 .0896)"><rect x="97" y="42.8" width="6.04" height="13.7" ry="2.48" fill="#77a2b2"/><path d="m97 56.5h3.02l0.0208-10.3c-0.0501-0.359 0.264-0.665 0.608-0.608l2.39 0.0053-0.29-1.55-2.73-1.31-2.84 1.57z" fill="#fbfbf0"/><rect x="97" y="42.8" width="6.04" height="16.5" ry="2.48" fill="none" stroke="#042033" stroke-linecap="round" stroke-linejoin="round" stroke-width="2.22"/></g><g transform="translate(27.2 .0896)"><rect x="97" y="42.8" width="6.04" height="13.7" ry="2.48" fill="#77a2b2"/><path d="m97 56.5h3.02l0.0208-10.3c-0.0501-0.359 0.264-0.665 0.608-0.608l2.39 0.0053-0.29-1.55-2.73-1.31-2.84 1.57z" fill="#fbfbf0"/><rect x="97" y="42.8" width="6.04" height="16.5" ry="2.48" fill="none" stroke="#042033" stroke-linecap="round" stroke-linejoin="round" stroke-width="2.22"/></g><rect x="91" y="56.6" width="44.2" height="44.3" ry="4.78" fill="#fff" stroke="#042033" stroke-linecap="round" stroke-linejoin="round" stroke-width="2.21"/><path d="m120 60.3 11.7-0.146 6e-3 3.49s-0.182 0.877-0.52 1.28c-0.258 0.303-0.767 0.874-1.28 1.14-0.702 0.356-1.5 0.306-1.5 0.306l-5.43-0.0259s-1.37-0.331-1.87-0.885c-0.465-0.519-0.602-0.675-0.755-0.968-0.213-0.407-0.335-0.847-0.335-0.847z" fill="none" stroke="#042033" stroke-linecap="round" stroke-linejoin="round" stroke-width="1.9"/><g transform="translate(0 1.06)" fill="none" stroke-linecap="round" stroke-linejoin="round"><ellipse cx="117" cy="84.3" rx="13" ry="12.9" stroke="#a8d1d7" stroke-width="2.18"/><circle cx="116" cy="83.6" r="13.6" stroke="#042033" stroke-width="2.29"/></g><g><g fill="#6e9cad"><rect x="93.8" y="64.8" width="2" height="3.24"/><rect x="93.8" y="70.8" width="2" height="3.24"/><rect x="93.8" y="77" width="2" height="3.24"/></g><g fill="#040420"><rect x="97.4" y="64.8" width="2.11" height="2.1"/><rect x="101" y="64.8" width="2.11" height="2.1"/><rect x="97.4" y="70.9" width="2.11" height="2.1"/><rect x="101" y="70.8" width="2.11" height="2.1"/><rect x="97.4" y="77" width="2.11" height="2.1"/></g><rect x="93.8" y="83.1" width="2" height="3.24" fill="#6e9cad"/><rect x="97.4" y="83.1" width="2.11" height="2.1" fill="#040420"/><rect x="93.8" y="89.2" width="2" height="3.24" fill="#6e9cad"/><rect x="97.4" y="89.2" width="2.11" height="2.1" fill="#040420"/><rect x="104" y="64.8" width="2.11" height="2.1" fill="#040420"/></g><rect x="108" y="64.8" width="2.11" height="2.1" fill="#040420"/><g transform="translate(0 1.06)" stroke-linecap="round" stroke-linejoin="round" stroke-width="1.9"><path d="m115 84.1 11.3-13.8s0.525-1.06 2.12-0.422c1.33 1.59 0.114 2.59 0.114 2.59l-10.7 16.7s-0.614 1.44-1.76 1.54c-0.99-0.0058-2.17-1.56-2.17-1.56l-4.3-4.32s-0.542-1.22 0.265-2.04c0.848-0.824 2.17-0.226 2.17-0.226z" fill="none" stroke="#a8d1d7"/><path d="m114 83.2 11.3-13.8s0.525-1.06 2.12-0.422c1.33 1.59 0.114 2.59 0.114 2.59l-10.7 16.7s-0.614 1.44-1.76 1.54c-0.99-0.0058-2.17-1.56-2.17-1.56l-4.3-4.32s-0.542-1.22 0.265-2.04c0.848-0.824 2.17-0.226 2.17-0.226z" fill="#fff" stroke="#042033"/></g><g transform="translate(78.3 -3.54)"><g><path d="m41.5 102 2.39 2.51-5.29 2.72 2.89-5.23" fill="#77a2b2"/><path d="m49.6 98.8-6.44 5.15-0.726-0.761 5.79-6.41 14.5-13.9 1.34 1.47-4.41 4.35z" fill="#fdb859"/><path d="m49.6 98.8-6.44 5.15 0.806 0.845 5.66-2.91 16.3-15.7-1.87-1.81z" fill="#e3901f"/><path d="m59.6 88.7 1.82 1.85-11.4 11.1-0.651-2.9z" fill="#468aa2"/><path d="m48.1 96.9-5.75 6.33-0.863-0.905 2.72-4.66 16.1-16.8 2.36 2.11z" fill="#f8f0e3"/><path d="m58.1 87-9.7 9.75-2.88-1.01 10.6-10.7z" fill="#fbfbf0"/><path d="m58 87.2 1.63 1.56-10.1 10.1-1.35-1.93z" fill="#73a1b1"/><path d="m65.9 80.7-2.37 3.01 2.05 2.24 1.46-1.85z" fill="#5d92a4"/><path d="m61.7 82 2.47 2.57s0.789-0.817 0.975-1.18 0.243-0.449 0.344-0.929c0.101-0.48 0.0063-1.31 0.0063-1.31s-0.611-0.536-1.21-0.51c-0.255 0.011-0.86 0.058-1.22 0.235-0.476 0.236-0.895 0.631-0.895 0.631z" fill="#77a2b2"/><path d="m60.6 80.7 1.05 1.22s0.472-0.351 0.871-0.679c0.398-0.328 0.447-0.416 1.04-0.532 0.59-0.116 1.95 0.0278 1.95 0.0278l-2.09-1.83z" fill="#fafafa"/></g><g fill="none" stroke="#042033" stroke-width="1.5"><path d="m38.6 108 6.03-10.9 15.6-15.8s1.42-1.5 2.4-1.68c1.52-0.227 2.94 1.55 2.94 1.55s1.22 1.15 1.42 2.12c0.199 0.961-0.143 2.26-1.01 3.22l-15.7 15.5z" stroke-linecap="round" stroke-linejoin="round"/><g><path d="m45.1 96.2 3.11 0.572 0.0432 1.73 1.33 0.298 0.033 3.08"/><path d="m56.1 85.1 5.38 5.47"/><path d="m58.2 82.9 5.39 5.51"/><path d="m60.3 80.8 5.56 5.39"/><path d="m41.5 102 2.39 2.51"/></g></g><path d="m48.9 98.7" fill="#f8f0e3"/></g></g></g></svg>
