<?xml version="1.0" encoding="UTF-8"?>
<svg width="87.91mm" height="52mm" version="1.1" viewBox="0 0 87.91 52" xmlns="http://www.w3.org/2000/svg"><g><g fill="#000000"><g stroke-width=".4138"><g font-size="3.228px"><text transform="scale(1.058 .9448)" x="5.447753" y="48.884388" xml:space="preserve"><tspan x="5.447753" y="48.884388" fill="#000000" font-family="sans-serif" font-weight="bold" stroke-width=".4138">1</tspan></text><text transform="scale(1.058 .9448)" x="15.581475" y="48.900536" xml:space="preserve"><tspan x="15.581475" y="48.900536" fill="#000000" font-family="sans-serif" font-weight="bold" stroke-width=".4138">2</tspan></text><text transform="scale(1.058 .9448)" x="77.410347" y="48.882778" xml:space="preserve"><tspan x="77.410347" y="48.882778" fill="#000000" font-family="sans-serif" font-weight="bold" stroke-width=".4138">8</tspan></text><text transform="scale(1.058 .9448)" x="56.79911" y="48.881165" xml:space="preserve"><tspan x="56.79911" y="48.881165" fill="#000000" font-family="sans-serif" font-weight="bold" stroke-width=".4138">6</tspan></text><text transform="scale(1.058 .9448)" x="46.494297" y="48.868256" xml:space="preserve"><tspan x="46.494297" y="48.868256" fill="#000000" font-family="sans-serif" font-weight="bold" stroke-width=".4138">5</tspan></text><text transform="scale(1.058 .9448)" x="25.895971" y="48.884388" xml:space="preserve"><tspan x="25.895971" y="48.884388" fill="#000000" font-family="sans-serif" font-weight="bold" stroke-width=".4138">3</tspan></text><text transform="scale(1.058 .9448)" x="36.195942" y="48.884388" xml:space="preserve"><tspan x="36.195942" y="48.884388" fill="#000000" font-family="sans-serif" font-weight="bold" stroke-width=".4138">4</tspan></text><text transform="scale(1.058 .9448)" x="67.115219" y="48.884388" xml:space="preserve"><tspan x="67.115219" y="48.884388" fill="#000000" font-family="sans-serif" font-weight="bold" stroke-width=".4138">7</tspan></text></g><g font-size="3.102px"><text transform="scale(1.059 .9439)" x="14.716408" y="9.5457335" xml:space="preserve"><tspan x="14.716408" y="9.5457335" fill="#000000" font-family="sans-serif" font-size="3.102px" font-weight="bold" stroke-width=".4138">15</tspan></text><text transform="scale(1.059 .9439)" x="77.37854" y="9.5581398" xml:space="preserve"><tspan x="77.37854" y="9.5581398" fill="#000000" font-family="sans-serif" font-size="3.102px" font-weight="bold" stroke-width=".4138">9</tspan></text><text transform="scale(1.059 .9439)" x="56.057415" y="9.5612335" xml:space="preserve"><tspan x="56.057415" y="9.5612335" fill="#000000" font-family="sans-serif" font-size="3.102px" font-weight="bold" stroke-width=".4138">11</tspan></text><text transform="scale(1.059 .9439)" x="45.57056" y="9.5767488" xml:space="preserve"><tspan x="45.57056" y="9.5767488" fill="#000000" font-family="sans-serif" font-size="3.102px" font-weight="bold" stroke-width=".4138">12</tspan></text><text transform="scale(1.059 .9439)" x="24.962868" y="9.5612335" xml:space="preserve"><tspan x="24.962868" y="9.5612335" fill="#000000" font-family="sans-serif" font-size="3.102px" font-weight="bold" stroke-width=".4138">14</tspan></text><text transform="scale(1.059 .9439)" x="35.289978" y="9.5612335" xml:space="preserve"><tspan x="35.289978" y="9.5612335" fill="#000000" font-family="sans-serif" font-size="3.102px" font-weight="bold" stroke-width=".4138">13</tspan></text><text transform="scale(1.059 .9439)" x="66.159645" y="9.5627956" xml:space="preserve"><tspan x="66.159645" y="9.5627956" fill="#000000" font-family="sans-serif" font-size="3.102px" font-weight="bold" stroke-width=".4138">10</tspan></text><text transform="scale(1.059 .9439)" x="4.4048071" y="9.5581398" xml:space="preserve"><tspan x="4.4048071" y="9.5581398" fill="#000000" font-family="sans-serif" font-size="3.102px" font-weight="bold" stroke-width=".4138">16</tspan></text></g></g><g font-family="sans" font-weight="bold" text-anchor="middle"><text transform="scale(.9439 1.059)" x="30.237133" y="49.050362" font-size="3.357px" stroke-width=".4138" text-align="center" xml:space="preserve"><tspan x="30.237133" y="49.050362" font-size="3.357px" stroke-width=".4138">CLR1</tspan></text><text transform="scale(.9439 1.059)" x="41.6735" y="48.132725" font-size="3.445px" letter-spacing=".2583px" stroke-width=".4138" text-align="center" xml:space="preserve"><tspan x="41.802673" y="48.132725" font-size="3.445px" stroke-width=".4138">1J</tspan></text><g font-size="3.357px" stroke-width=".4138"><text transform="scale(.9439 1.059)" x="53.231384" y="48.132725" text-align="center" xml:space="preserve"><tspan x="53.231384" y="48.132725" font-size="3.357px" stroke-width=".4138">V<tspan baseline-shift="sub" font-size="3.357px" stroke-width=".4138">CC</tspan></tspan></text><text transform="scale(.9439 1.059)" x="7.1320844" y="49.050362" text-align="center" xml:space="preserve"><tspan x="7.1320844" y="49.050362" font-size="3.357px" stroke-width=".4138">CLK1</tspan></text><text transform="scale(.9226 1.084)" x="19.059116" y="47.907837" text-align="center" xml:space="preserve"><tspan x="19.059116" y="47.907837" font-size="3.357px" stroke-width=".4138">PR1</tspan></text><text transform="scale(.9439 1.059)" x="87.788239" y="49.050362" text-align="center" xml:space="preserve"><tspan x="87.788239" y="49.050362" font-size="3.357px" stroke-width=".4138">CLR2</tspan></text><text transform="scale(.9439 1.059)" x="64.683189" y="49.050362" text-align="center" xml:space="preserve"><tspan x="64.683189" y="49.050362" font-size="3.357px" stroke-width=".4138">CLK2</tspan></text><text transform="scale(.9221 1.085)" x="77.991112" y="47.913979" text-align="center" xml:space="preserve"><tspan x="77.991112" y="47.913979" font-size="3.357px" stroke-width=".4138">PR2</tspan></text></g><g font-size="3.445px" stroke-width=".4138"><text transform="scale(.9439 1.059)" x="6.8787355" y="3.9661653" text-align="center" xml:space="preserve"><tspan x="6.8787355" y="3.9661653" font-size="3.445px" stroke-width=".4138">1K</tspan></text><text transform="scale(.9439 1.059)" x="18.529219" y="3.3805826" text-align="center" xml:space="preserve"><tspan x="18.529219" y="3.3805826" font-size="3.445px" stroke-width=".4138">1Q</tspan></text><text transform="scale(.9439 1.059)" x="41.632118" y="3.9317238" text-align="center" xml:space="preserve"><tspan x="41.632118" y="3.9317238" font-size="3.445px" stroke-width=".4138">GND</tspan></text><text transform="scale(.9439 1.059)" x="53.11726" y="3.9661653" text-align="center" xml:space="preserve"><tspan x="53.11726" y="3.9661653" font-size="3.445px" stroke-width=".4138">2K</tspan></text><text transform="scale(.9439 1.059)" x="64.767746" y="3.3805826" text-align="center" xml:space="preserve"><tspan x="64.767746" y="3.3805826" font-size="3.445px" stroke-width=".4138">2Q</tspan></text><text transform="scale(.9439 1.059)" x="87.924042" y="3.2427852" letter-spacing=".5658px" text-align="center" xml:space="preserve"><tspan x="88.206924" y="3.2427852" font-size="3.445px" stroke-width=".4138">2J</tspan></text><text transform="scale(.9439 1.059)" x="30.079807" y="3.3805721" text-align="center" xml:space="preserve"><tspan x="30.079807" y="3.3805721" font-size="3.445px" stroke-width=".4138">1Q</tspan></text><text transform="scale(.9439 1.059)" x="76.318329" y="3.3805721" text-align="center" xml:space="preserve"><tspan x="76.318329" y="3.3805721" font-size="3.445px" stroke-width=".4138">2Q</tspan></text></g><text transform="scale(1.053 .9498)" x="25.579205" y="35.75597" font-size="2.607px" stroke-width=".4138" text-align="center" xml:space="preserve"><tspan x="25.579205" y="35.75597" font-size="2.607px" stroke-width=".4138">Q</tspan></text><text transform="scale(1.053 .9498)" x="25.562664" y="25.705275" font-size="2.656px" stroke-width=".4138" text-align="center" xml:space="preserve"><tspan x="25.562664" y="25.705275" font-size="2.656px" stroke-width=".4138">Q</tspan></text></g></g><text transform="scale(1.053 .9498)" x="17.814621" y="30.605703" fill="none" font-family="sans" font-size="2.659px" font-weight="bold" stroke-width=".4138" text-align="center" text-anchor="middle" xml:space="preserve"><tspan x="17.814621" y="30.605703" fill="#000000" font-size="2.659px" stroke-width=".4138">CK</tspan></text><g fill="#000000" font-family="sans" font-weight="bold" text-anchor="middle"><text transform="scale(1.053 .9498)" x="13.73082" y="25.334795" font-size="2.659px" stroke-width=".4138" text-align="center" xml:space="preserve"><tspan x="13.73082" y="25.334795" stroke-width=".4138">K</tspan></text><text transform="scale(1.053 .9498)" x="13.72406" y="35.702587" font-size="2.659px" stroke-width=".4138" text-align="center" xml:space="preserve"><tspan x="13.72406" y="35.702587" stroke-width=".4138">J</tspan></text><text transform="scale(1.053 .9498)" x="19.470116" y="35.981747" font-size="2.659px" stroke-width=".4138" text-align="center" xml:space="preserve"><tspan x="19.470116" y="35.981747" stroke-width=".4138">PR</tspan></text><text transform="scale(1.053 .9498)" x="19.512714" y="25.334795" font-size="2.659px" stroke-width=".4138" text-align="center" xml:space="preserve"><tspan x="19.512714" y="25.334795" stroke-width=".4138">CLR</tspan></text><text transform="scale(1.053 .9498)" x="70.287033" y="36.005146" font-size="2.656px" stroke-width=".4138" text-align="center" xml:space="preserve"><tspan x="70.287033" y="36.005146" font-size="2.656px" stroke-width=".4138">Q</tspan></text><text transform="scale(1.053 .9498)" x="70.303177" y="25.44405" font-size="2.607px" stroke-width=".4138" text-align="center" xml:space="preserve"><tspan x="70.303177" y="25.44405" font-size="2.607px" stroke-width=".4138">Q</tspan></text></g><text transform="scale(1.053 .9498)" x="62.522224" y="30.605703" fill="none" font-family="sans" font-size="2.659px" font-weight="bold" stroke-width=".4138" text-align="center" text-anchor="middle" xml:space="preserve"><tspan x="62.522224" y="30.605703" fill="#000000" font-size="2.659px" stroke-width=".4138">CK</tspan></text><g fill="#000000" font-family="sans" font-weight="bold" text-anchor="middle"><text transform="scale(1.053 .9498)" x="58.094128" y="35.981419" font-size="2.659px" stroke-width=".4138" text-align="center" xml:space="preserve"><tspan x="58.094128" y="35.981419" stroke-width=".4138">K</tspan></text><text transform="scale(1.053 .9498)" x="58.086983" y="25.390667" font-size="2.659px" stroke-width=".4138" text-align="center" xml:space="preserve"><tspan x="58.086983" y="25.390667" stroke-width=".4138">J</tspan></text><text transform="scale(1.053 .9498)" x="64.177216" y="25.093481" font-size="2.659px" stroke-width=".4138" text-align="center" xml:space="preserve"><tspan x="64.177216" y="25.093481" stroke-width=".4138">PR</tspan></text><text transform="scale(1.053 .9498)" x="64.220421" y="35.981419" font-size="2.659px" stroke-width=".4138" text-align="center" xml:space="preserve"><tspan x="64.220421" y="35.981419" stroke-width=".4138">CLR</tspan></text></g><path d="m68.63 20.88a0.931 0.931 0 0 0-0.4655-0.8063 0.931 0.931 0 0 0-0.931 0 0.931 0.931 0 0 0-0.4655 0.8063m1.862 14.57a0.931 0.931 0 0 1-0.4655 0.8063 0.931 0.931 0 0 1-0.931 0 0.931 0.931 0 0 1-0.4655-0.8063m-7.389-7.286a0.5172 0.5172 0 0 1-0.5172 0.5172 0.5172 0.5172 0 0 1-0.5172-0.5172 0.5172 0.5172 0 0 1 0.5172-0.5172 0.5172 0.5172 0 0 1 0.5172 0.5172zm3.21e-4 -1.654 2.6e-4 3.307 3.534-1.652zm-4.96e-4 -5.632h16.64v14.57h-16.64zm8.32-0.931v-1.16h-16.37v21.82l20.67 2.1e-5v2.57m-10.9-33.28v3.736h10.9v5.153h5.736v4.761h-1.717m-4.013-13.65-0.0059 1.16 8.41 0.04283-0.0399 22.17h-4.352m6.89-23.37-4e-3 6.313h-27.26v7.338l3.733-0.07272m8.32 12.9v1.654l15.21 1e-5v5.14m-24.56-15.01h-2.699v9.869l5.451 1e-5v5.14m-1.717-9.906h-12.62v-19.64l3.433 2e-5 -8e-6 -3.736m22.86 22.02 1.901 6.82e-4v0m-53.4-11.04a0.931 0.931 0 0 0-0.4655-0.8063 0.931 0.931 0 0 0-0.931 0 0.931 0.931 0 0 0-0.4655 0.8063m1.862 14.57a0.931 0.931 0 0 1-0.4655 0.8063 0.931 0.931 0 0 1-0.931 0 0.931 0.931 0 0 1-0.4655-0.8063m-7.389-7.286a0.5172 0.5172 0 0 1-0.5172 0.5172 0.5172 0.5172 0 0 1-0.5172-0.5172 0.5172 0.5172 0 0 1 0.5172-0.5172 0.5172 0.5172 0 0 1 0.5172 0.5172zm3.21e-4 -1.654 2.59e-4 3.307 3.534-1.652zm-4.97e-4 -5.632h16.64v14.57h-16.64zm-5.734-10.98-3e-7 13.65h5.734m-1.034 4.617h-4.699v15.01m14.06-23.23v-1.16h14.94v19.25l-7.195 0.04283-1e-6 5.097m-7.758-6.778v1.595l-3.146 0.04314v5.14m-5.171-9.906h-2.867v7.335l29.85 1e-5v2.57m-10.9-33.28 1e-6 6.313h3.005v7.338h-2.441m0.2069 9.721 10.61-1e-5v-19.64h-22.29l-3e-6 -3.736m8.487 12.24 1.901 6.82e-4v0m44.06-21.9 2.153-0.002069m-45.78-0.03164 2.131-2.483e-4m38.88 48.39 5.377-2.28e-4m-17.31 2.28e-4 7.438-2.28e-4m14.38 2.28e-4 7.425-2.28e-4m-71.64 2.28e-4 4.996-2.28e-4m-16.92 2.28e-4 7.038-2.28e-4m14.78 2.28e-4 7.026-2.28e-4m-27.46-42.53h4.312v3.842h-4.312zm65.42 0h4.312v3.842h-4.312zm-32.71 0h4.312v3.842h-4.312zm-10.9 0h4.312v3.842h-4.312zm21.81 0h4.312v3.842h-4.312zm10.9 0h4.312v3.842h-4.312zm21.81 0h4.312v3.842h-4.312zm-65.42 0h4.312v3.842h-4.312zm54.51 37.12h4.304v3.843h-4.304zm-32.71 0h4.304v3.843h-4.304zm-10.9 0h4.304v3.843h-4.304zm21.81 0h4.304v3.843h-4.304zm10.9 0h4.304v3.843h-4.304zm21.81 0h4.304v3.843h-4.304zm-65.43 0h4.304v3.843h-4.304zm-10.9 0h4.304v3.843h-4.304zm-4.213-13.79c1.018 0 1.959-0.5432 2.468-1.425 0.5091-0.8818 0.5091-1.968 0-2.85-0.5091-0.8818-1.45-1.425-2.468-1.425m0 5.7v13.79h87.5v-33.28h-87.5l-4.2e-7 13.79" fill="none" stroke="#000" stroke-linecap="square" stroke-width=".4138"/></g></svg>
