<?xml version="1.0" encoding="UTF-8"?>
<svg width="99.736mm" height="52mm" version="1.1" viewBox="0 0 99.736 52" xmlns="http://www.w3.org/2000/svg"><title>IC 7400 pinout</title><g stroke-width=".4" text-anchor="middle"><g font-family="sans"><g font-size="4.4036px" font-weight="bold"><text x="93.45961" y="4.8073816" text-align="center" xml:space="preserve"><tspan x="93.45961" y="4.8073816" stroke-width=".4">8</tspan><tspan x="93.45961" y="10.311819"/></text><text x="79.159859" y="4.8051791" text-align="center" xml:space="preserve"><tspan x="79.159859" y="4.8051791" stroke-width=".4">9</tspan><tspan x="79.159859" y="10.309617"/></text><text x="64.796257" y="4.8117857" text-align="center" xml:space="preserve"><tspan x="64.796257" y="4.8117857" stroke-width=".4">10</tspan><tspan x="64.796257" y="10.316223"/></text><text x="50.758495" y="4.8095827" text-align="center" xml:space="preserve"><tspan x="50.758495" y="4.8095827" stroke-width=".4">11</tspan><tspan x="50.758495" y="10.31402"/></text><text x="36.174717" y="4.8316016" text-align="center" xml:space="preserve"><tspan x="36.174717" y="4.8316016" stroke-width=".4">12</tspan><tspan x="36.174717" y="10.336039"/></text><text x="21.883766" y="4.8095827" text-align="center" xml:space="preserve"><tspan x="21.883766" y="4.8095827" stroke-width=".4">13</tspan><tspan x="21.883766" y="10.314021"/></text><text x="7.5267596" y="4.8095832" text-align="center" xml:space="preserve"><tspan x="7.5267596" y="4.8095832" fill="#000000" font-size="4.4036px" stroke-width=".4">14</tspan></text><text x="93.470619" y="50.334576" text-align="center" xml:space="preserve"><tspan x="93.470619" y="50.334576" fill="#000000" font-size="4.4036px" stroke-width=".4">7</tspan></text><text x="79.146637" y="50.330177" text-align="center" xml:space="preserve"><tspan x="79.146637" y="50.330177" fill="#000000" font-size="4.4036px" stroke-width=".4">6</tspan></text><text x="64.838074" y="50.312561" text-align="center" xml:space="preserve"><tspan x="64.838074" y="50.312561" fill="#000000" font-size="4.4036px" stroke-width=".4">5</tspan></text><text x="50.538315" y="50.334583" text-align="center" xml:space="preserve"><tspan x="50.538315" y="50.334583" fill="#000000" font-size="4.4036px" stroke-width=".4">4</tspan></text></g><g font-weight="bold"><text transform="scale(.99307 1.007)" x="36.489735" y="50.093864" font-size="4.7891px" text-align="center" xml:space="preserve"><tspan x="36.489735" y="50.093864" stroke-width=".4">3</tspan><tspan x="36.489735" y="56.080261"/></text><text x="21.914587" y="50.356598" font-size="4.4036px" text-align="center" xml:space="preserve"><tspan x="21.914587" y="50.356598" stroke-width=".4">2</tspan><tspan x="21.914587" y="55.861034"/></text><text x="7.8394103" y="50.334576" font-size="4.4036px" text-align="center" xml:space="preserve"><tspan x="7.8394103" y="50.334576" fill="#000000" font-size="4.4036px" stroke-width=".4">1</tspan></text></g><text x="7.4262686" y="11.514225" font-size="4.6947px" text-align="center" xml:space="preserve"><tspan x="7.4262686" y="11.514225" fill="#000000" font-family="sans-serif" font-size="4.6947px" font-weight="bold" stroke-width=".4">V<tspan baseline-shift="sub" fill="#000000" font-size="4.6947px" stroke-width=".4">CC</tspan></tspan></text></g><text x="92.740509" y="43.169094" font-family="sans-serif" font-size="4.6947px" font-weight="bold" text-align="center" xml:space="preserve"><tspan x="92.740509" y="43.169094" fill="#000000" stroke-width=".4">GND</tspan></text><text x="54.73354" y="27.236048" font-family="sans-serif" font-size="6.5726px" font-weight="bold" text-align="center" xml:space="preserve"><tspan x="54.73354" y="27.236048" fill="#000000" font-family="serif" font-size="6.5726px" font-weight="bold" stroke-width=".4">7400</tspan></text></g><path d="m36.232 6.275v2.5559h-7.1496l1e-6 4.9556h4.62m-11.777-7.5115 4e-6 12.93 11.777-2e-6m14.14-2.71 2.6957-2e-6 -2e-6 -10.221m-9.373 4.9516h-7.4629v10.538l7.4629 8.1e-4c2.8202 0 5.1062-2.3606 5.1062-5.2692s-2.286-5.2692-5.1062-5.2692zm6.6773 5.2692c0-0.44748-0.3535-0.81065-0.78556-0.81065-0.43208 0-0.78558 0.36317-0.78558 0.81065s0.3535 0.81065 0.78558 0.81065c0.43206 0 0.78556-0.36317 0.78556-0.81065zm17.002-10.221 2e-6 12.93h11.725m2.5811-12.93v2.5559h-7.1532v4.9556h4.5721m14.14 2.709 2.7472 5.3e-4 0.0019-10.221m-9.4264 4.9515h-7.4629v10.538l7.4629 8.1e-4c2.8202 0 5.1062-2.3606 5.1062-5.2692s-2.286-5.2692-5.1062-5.2692zm6.6773 5.2692c0-0.44748-0.3535-0.81065-0.78556-0.81065-0.43208 0-0.78558 0.36317-0.78558 0.81065s0.3535 0.81065 0.78558 0.81065c0.43206 0 0.78556-0.36317 0.78556-0.81065zm-68.785 29.229v-2.5559h-7.1496l1e-6 -4.9556h4.62m-11.777 7.5115 3.2e-6 -12.93 11.777 2e-6m14.14 2.71 2.6957 2e-6 -2e-6 10.221m-9.373-4.9516h-7.4629v-10.538l7.4629-8.1e-4c2.8202 0 5.1062 2.3606 5.1062 5.2692s-2.286 5.2692-5.1062 5.2692zm6.6773-5.2692c0 0.44748-0.3535 0.81065-0.78556 0.81065-0.43208 0-0.78558-0.36317-0.78558-0.81065s0.3535-0.81065 0.78558-0.81065c0.43206 0 0.78556 0.36317 0.78556 0.81065zm17.002 10.221 2e-6 -12.93h11.725m2.5811 12.93v-2.5559h-7.1532v-4.9556h4.5721m14.14-2.709 2.7472-5.3e-4 0.0019 10.221m-9.4264-4.9515h-7.4629v-10.538l7.4629-8.1e-4c2.8202 0 5.1062 2.3606 5.1062 5.2692s-2.286 5.2692-5.1062 5.2692zm6.6773-5.2692c0 0.44748-0.3535 0.81065-0.78556 0.81065-0.43208 0-0.78558-0.36317-0.78558-0.81065s0.3535-0.81065 0.78558-0.81065c0.43206 0 0.78556 0.36317 0.78556 0.81065zm-76.204 10.221h99.336v-39.45h-99.336v16.347a3.9894 3.381 0 0 1 0.15908-0.0021 3.9894 3.381 0 0 1 3.9898 3.3804 3.9894 3.381 0 0 1-3.9898 3.3814 3.9894 3.381 0 0 1-0.15908-0.0044zm4.049-2.78e-4h6.7404v6.075h-6.7404zm14.306 0h6.7404v6.075h-6.7404zm14.306-7.32e-4h6.7407v6.0757h-6.7407zm14.306 7.32e-4h6.7404v6.075h-6.7404zm14.306 0h6.7404v6.075h-6.7404zm14.306 0h6.7404v6.075h-6.7404zm14.306 0h6.7404v6.075h-6.7404zm-85.838-45.525h6.7404v6.075h-6.7404zm14.306 4.8e-7h6.7404v6.075h-6.7404zm14.306 0h6.7404v6.075h-6.7404zm14.306 0h6.7404v6.075h-6.7404zm14.306 0h6.7404v6.075h-6.7404zm14.306 0h6.7404v6.075h-6.7404zm14.306 0h6.7404v6.075h-6.7404z" fill="none" stroke="#000" stroke-width=".4"/></svg>
