<?xml version="1.0" encoding="UTF-8"?>
<svg width="99.736mm" height="52mm" version="1.1" viewBox="0 0 99.736 52" xmlns="http://www.w3.org/2000/svg"><g stroke-width="0" text-anchor="middle"><g font-family="sans"><g font-size="4.4036px" font-weight="bold"><text x="93.45961" y="4.8073812" text-align="center" xml:space="preserve"><tspan x="93.45961" y="4.8073812" stroke-width="0">8</tspan><tspan x="93.45961" y="10.311818"/></text><text x="79.159859" y="4.8051786" text-align="center" xml:space="preserve"><tspan x="79.159859" y="4.8051786" stroke-width="0">9</tspan><tspan x="79.159859" y="10.309617"/></text><text x="64.796257" y="4.8117852" text-align="center" xml:space="preserve"><tspan x="64.796257" y="4.8117852" stroke-width="0">10</tspan><tspan x="64.796257" y="10.316223"/></text><text x="50.758495" y="4.8095822" text-align="center" xml:space="preserve"><tspan x="50.758495" y="4.8095822" stroke-width="0">11</tspan><tspan x="50.758495" y="10.31402"/></text><text x="36.174717" y="4.8316011" text-align="center" xml:space="preserve"><tspan x="36.174717" y="4.8316011" stroke-width="0">12</tspan><tspan x="36.174717" y="10.336039"/></text><text x="21.883766" y="4.8095827" text-align="center" xml:space="preserve"><tspan x="21.883766" y="4.8095827" stroke-width="0">13</tspan><tspan x="21.883766" y="10.31402"/></text><text x="7.5267591" y="4.8095827" text-align="center" xml:space="preserve"><tspan x="7.5267591" y="4.8095827" fill="#000000" font-size="4.4036px" stroke-width="0">14</tspan></text><text x="93.470619" y="50.334576" text-align="center" xml:space="preserve"><tspan x="93.470619" y="50.334576" fill="#000000" font-size="4.4036px" stroke-width="0">7</tspan></text><text x="79.146637" y="50.330177" text-align="center" xml:space="preserve"><tspan x="79.146637" y="50.330177" fill="#000000" font-size="4.4036px" stroke-width="0">6</tspan></text><text x="64.838074" y="50.312561" text-align="center" xml:space="preserve"><tspan x="64.838074" y="50.312561" fill="#000000" font-size="4.4036px" stroke-width="0">5</tspan></text><text x="50.538315" y="50.334583" text-align="center" xml:space="preserve"><tspan x="50.538315" y="50.334583" fill="#000000" font-size="4.4036px" stroke-width="0">4</tspan></text></g><g font-weight="bold"><text transform="scale(.99307 1.007)" x="36.489735" y="50.093864" font-size="4.7891px" text-align="center" xml:space="preserve"><tspan x="36.489735" y="50.093864" stroke-width="0">3</tspan><tspan x="36.489735" y="56.080261"/></text><text x="21.914587" y="50.356598" font-size="4.4036px" text-align="center" xml:space="preserve"><tspan x="21.914587" y="50.356598" stroke-width="0">2</tspan><tspan x="21.914587" y="55.861034"/></text><text x="7.8394098" y="50.334576" font-size="4.4036px" text-align="center" xml:space="preserve"><tspan x="7.8394098" y="50.334576" fill="#000000" font-size="4.4036px" stroke-width="0">1</tspan></text></g><text x="7.4262681" y="11.314224" font-size="4.6947px" text-align="center" xml:space="preserve"><tspan x="7.4262681" y="11.314224" fill="#000000" font-family="sans-serif" font-size="4.6947px" font-weight="bold" stroke-width="0">V<tspan baseline-shift="sub" fill="#000000" font-size="4.6947px" stroke-width="0">CC</tspan></tspan></text></g><text x="92.740509" y="42.969093" font-family="sans-serif" font-size="4.6947px" font-weight="bold" text-align="center" xml:space="preserve"><tspan x="92.740509" y="42.969093" fill="#000000" stroke-width="0">GND</tspan></text></g><path d="m91.318 16.694 2.1393 1e-5 7e-5 -10.419m-14.306 2.8e-4v10.418h2.1398m10.027-1e-5c0-0.475-0.3823-0.85586-0.85337-0.85586s-0.85341 0.38086-0.85341 0.85586c0 0.47075 0.38234 0.85588 0.85341 0.85588s0.85337-0.38513 0.85337-0.85588zm-10.027-4.7072v9.4145l8.1012-4.7073zm-18.586 4.7072 2.1393 1e-5 7e-5 -10.419m-14.306 2.8e-4v10.418h2.1398m10.027-1e-5c0-0.475-0.3823-0.85586-0.85337-0.85586s-0.85341 0.38086-0.85341 0.85586c0 0.47075 0.38234 0.85588 0.85341 0.85588s0.85337-0.38513 0.85337-0.85588zm-10.027-4.7072v9.4145l8.1012-4.7073zm-18.585 4.7072 2.1393 1e-5 7e-5 -10.419m-14.306 2.8e-4v10.418h2.1398m10.027-1e-5c0-0.475-0.3823-0.85586-0.85337-0.85586s-0.85341 0.38086-0.85341 0.85586c0 0.47075 0.38234 0.85588 0.85341 0.85588s0.85337-0.38513 0.85337-0.85588zm-10.027-4.7072v9.4145l8.1012-4.7073zm52.946 23.32 2.1393-1.7e-5 7e-5 10.419m-14.306-2.8e-4v-10.418h2.1398m10.027 1.7e-5c0 0.475-0.3823 0.85585-0.85337 0.85585s-0.85341-0.38085-0.85341-0.85585c0-0.47076 0.38234-0.85588 0.85341-0.85588s0.85337 0.38513 0.85337 0.85588zm-10.027 4.7072v-9.4145l8.1012 4.7073zm-18.586-4.7072 2.1393-1.7e-5 7e-5 10.419m-14.306-2.8e-4v-10.418h2.1398m10.027 1.7e-5c0 0.475-0.3823 0.85585-0.85337 0.85585s-0.85341-0.38085-0.85341-0.85585c0-0.47076 0.38234-0.85588 0.85341-0.85588s0.85337 0.38513 0.85337 0.85588zm-10.027 4.7072v-9.4145l8.1012 4.7073zm-18.585-4.7072 2.1393-1.7e-5 7e-5 10.419m-14.306-2.8e-4v-10.418h2.1398m10.027 1.7e-5c0 0.475-0.3823 0.85585-0.85337 0.85585s-0.85341-0.38085-0.85341-0.85585c0-0.47076 0.38234-0.85588 0.85341-0.85588s0.85337 0.38513 0.85337 0.85588zm-10.027 4.7072v-9.4145l8.1012 4.7073zm-5.51 5.711h6.7404v6.075h-6.7404zm14.306 0h6.7404v6.075h-6.7404zm14.306-7.32e-4h6.7407v6.0757h-6.7407zm14.306 7.32e-4h6.7404v6.075h-6.7404zm14.306 0h6.7404v6.075h-6.7404zm14.306 0h6.7404v6.075h-6.7404zm14.306 0h6.7404v6.075h-6.7404zm-85.838-45.525h6.7404v6.075h-6.7404zm14.306 4.7e-7h6.7404v6.075h-6.7404zm14.306 0h6.7404v6.075h-6.7404zm14.306 0h6.7404v6.075h-6.7404zm14.306 0h6.7404v6.075h-6.7404zm14.306 0h6.7404v6.075h-6.7404zm14.306 0h6.7404v6.075h-6.7404zm-89.887 45.525h99.336v-39.45h-99.336v16.347a3.9894 3.381 0 0 1 0.15908-0.0021 3.9894 3.381 0 0 1 3.9898 3.3804 3.9894 3.381 0 0 1-3.9898 3.3814 3.9894 3.381 0 0 1-0.15908-0.0044z" fill="none" stroke="#000" stroke-width=".4"/><text x="49.785603" y="29.404766" fill="#000000" font-family="sans-serif" font-size="6.5726px" font-weight="bold" stroke-width="0" text-align="center" text-anchor="middle" xml:space="preserve"><tspan x="49.785603" y="29.404766" fill="#000000" font-family="serif" font-size="6.5726px" font-weight="bold" stroke-width="0">7404</tspan></text></svg>
