<?xml version="1.0" encoding="UTF-8"?>
<svg width="99.736mm" height="52mm" version="1.1" viewBox="0 0 99.736 52" xmlns="http://www.w3.org/2000/svg">
	<g transform="translate(56.7 -37.141)" stroke-width=".4">
		<g transform="translate(-56.833 36.789)">
			<g stroke="#000">
				<path d="m0.3327 46.078h99.336v-39.45h-99.336v16.347c0.053006-0.0016 0.10604-0.0023 0.15908-0.0021 2.2032-2.07e-4 3.9895 1.5132 3.9898 3.3804 2.597e-4 1.8676-1.7862 3.3816-3.9898 3.3814-0.053056-5.7e-4 -0.10609-2e-3 -0.15908-0.0044z" fill="none"/>
				<g>
					<g transform="translate(0 .21984)">
						<rect x="90.22" y=".3327" width="6.7404" height="6.075" fill="none" stroke="#000"/>
						<text x="93.592308" y="4.9400768" fill="#000000" font-family="sans" font-size="4.4036px" font-weight="bold" stroke="none" text-align="center" text-anchor="middle" xml:space="preserve"><tspan x="93.592308" y="4.9400768" stroke="none" stroke-width=".4">8</tspan><tspan x="93.592308" y="10.444514"/></text>
					</g>
					<g transform="translate(3.4968e-6 .066304)">
						<rect x="75.914" y=".48623" width="6.7404" height="6.075" fill="none" stroke="#000"/>
						<text x="79.292549" y="5.0914073" fill="#000000" font-family="sans" font-size="4.4036px" font-weight="bold" stroke="none" text-align="center" text-anchor="middle" xml:space="preserve"><tspan x="79.292549" y="5.0914073" stroke="none" stroke-width=".4">9</tspan><tspan x="79.292549" y="10.595845"/></text>
					</g>
					<g transform="translate(6.9936e-6 .066304)">
						<rect x="61.607" y=".48623" width="6.7404" height="6.075" fill="none" stroke="#000"/>
						<text x="64.928947" y="5.0980144" fill="#000000" font-family="sans" font-size="4.4036px" font-weight="bold" stroke="none" text-align="center" text-anchor="middle" xml:space="preserve"><tspan x="64.928947" y="5.0980144" stroke="none" stroke-width=".4">10</tspan><tspan x="64.928947" y="10.602452"/></text>
					</g>
					<g transform="translate(1.049e-5 .066304)">
						<rect x="47.301" y=".48623" width="6.7404" height="6.075" fill="none" stroke="#000"/>
						<text x="50.891182" y="5.0958109" fill="#000000" font-family="sans" font-size="4.4036px" font-weight="bold" stroke="none" text-align="center" text-anchor="middle" xml:space="preserve"><tspan x="50.891182" y="5.0958109" stroke="none" stroke-width=".4">11</tspan><tspan x="50.891182" y="10.600248"/></text>
					</g>
					<g transform="translate(6.3578e-6 .066304)">
						<rect x="32.994" y=".48623" width="6.7404" height="6.075" fill="none" stroke="#000"/>
						<text x="36.307407" y="5.1178303" fill="#000000" font-family="sans" font-size="4.4036px" font-weight="bold" stroke="none" text-align="center" text-anchor="middle" xml:space="preserve"><tspan x="36.307407" y="5.1178303" stroke="none" stroke-width=".4">12</tspan><tspan x="36.307407" y="10.622268"/></text>
					</g>
					<g transform="translate(-1.5895e-6 .066303)">
						<rect x="18.688" y=".48623" width="6.7404" height="6.075" fill="none" stroke="#000"/>
						<text x="22.016464" y="5.0958123" fill="#000000" font-family="sans" font-size="4.4036px" font-weight="bold" stroke="none" text-align="center" text-anchor="middle" xml:space="preserve"><tspan x="22.016464" y="5.0958123" stroke="none" stroke-width=".4">13</tspan><tspan x="22.016464" y="10.60025"/></text>
					</g>
					<g>
						<rect x="4.3817" y=".55253" width="6.7404" height="6.075" fill="none" stroke="#000"/>
						<text x="7.6594553" y="5.1621156" fill="#000000" font-family="sans" font-size="4.4036px" font-weight="bold" stroke="none" text-align="center" text-anchor="middle" xml:space="preserve"><tspan x="7.6594553" y="5.1621156" fill="#000000" font-size="4.4036px" stroke="none" stroke-width=".4">14</tspan></text>
					</g>
				</g>
				<g transform="translate(0 -.10663)">
					<g stroke-width=".4">
						<g>
							<rect x="90.22" y="46.184" width="6.7404" height="6.075" fill="none" stroke="#000"/>
							<text x="93.603317" y="50.793743" fill="#000000" font-family="sans" font-size="4.4036px" font-weight="bold" stroke="none" text-align="center" text-anchor="middle" xml:space="preserve"><tspan x="93.603317" y="50.793743" fill="#000000" font-size="4.4036px" stroke="none" stroke-width=".4">7</tspan></text>
						</g>
						<g>
							<rect x="75.914" y="46.184" width="6.7404" height="6.075" fill="none" stroke="#000"/>
							<text x="79.279335" y="50.789345" fill="#000000" font-family="sans" font-size="4.4036px" font-weight="bold" stroke="none" text-align="center" text-anchor="middle" xml:space="preserve"><tspan x="79.279335" y="50.789345" fill="#000000" font-size="4.4036px" stroke="none" stroke-width=".4">6</tspan></text>
						</g>
						<g>
							<rect x="61.607" y="46.184" width="6.7404" height="6.075" fill="none" stroke="#000"/>
							<text x="64.970772" y="50.771729" fill="#000000" font-family="sans" font-size="4.4036px" font-weight="bold" stroke="none" text-align="center" text-anchor="middle" xml:space="preserve"><tspan x="64.970772" y="50.771729" fill="#000000" font-size="4.4036px" stroke="none" stroke-width=".4">5</tspan></text>
						</g>
						<g>
							<rect x="47.301" y="46.184" width="6.7404" height="6.075" fill="none" stroke="#000"/>
							<text x="50.671009" y="50.793751" fill="#000000" font-family="sans" font-size="4.4036px" font-weight="bold" stroke="none" text-align="center" text-anchor="middle" xml:space="preserve"><tspan x="50.671009" y="50.793751" fill="#000000" font-size="4.4036px" stroke="none" stroke-width=".4">4</tspan></text>
						</g>
					</g>
					<g transform="matrix(1.0004 0 0 .99633 -.012915 .16553)" stroke-width=".40066">
						<rect x="32.996" y="46.187" width="6.7383" height="6.098" fill="none" stroke="#000"/>
						<text transform="scale(.99107 1.009)" x="36.697208" y="50.469147" fill="#000000" font-family="sans" font-size="4.7971px" font-weight="bold" stroke="none" text-align="center" text-anchor="middle" xml:space="preserve"><tspan x="36.697208" y="50.469147" stroke="none" stroke-width=".40066">3</tspan><tspan x="36.697208" y="56.465485"/></text>
					</g>
					<g stroke-width=".4">
						<rect x="18.688" y="46.184" width="6.7404" height="6.075" fill="none" stroke="#000"/>
						<text x="22.047283" y="50.815765" fill="#000000" font-family="sans" font-size="4.4036px" font-weight="bold" stroke="none" text-align="center" text-anchor="middle" xml:space="preserve"><tspan x="22.047283" y="50.815765" stroke="none" stroke-width=".4">2</tspan><tspan x="22.047283" y="56.320202"/></text>
					</g>
					<g stroke-width=".4">
						<text x="7.972106" y="50.793743" fill="#000000" font-family="sans" font-size="4.4036px" font-weight="bold" stroke="none" text-align="center" text-anchor="middle" xml:space="preserve"><tspan x="7.972106" y="50.793743" fill="#000000" font-size="4.4036px" stroke="none" stroke-width=".4">1</tspan></text>
						<rect x="4.3817" y="46.184" width="6.7404" height="6.075" fill="none" stroke="#000"/>
					</g>
				</g>
			</g>
			<g transform="translate(56.833 -36.789)" fill="#000000" text-anchor="middle">
				<text x="-48.935089" y="48.326473" font-family="sans" font-size="4.6947px" text-align="center" xml:space="preserve"><tspan x="-48.935089" y="48.326473" fill="#000000" font-family="sans-serif" font-size="4.6947px" font-weight="bold" stroke-width=".4">V<tspan baseline-shift="sub" fill="#000000" font-size="4.6947px" stroke-width=".4">CC</tspan></tspan></text>
				<text x="36.323677" y="81.428017" font-family="sans-serif" font-size="4.6947px" font-weight="bold" text-align="center" xml:space="preserve"><tspan x="36.323677" y="81.428017" fill="#000000" stroke-width=".4">GND</tspan></text>
			</g>
			<g transform="translate(56.833 -36.789)" fill="none" stroke="#000">
				<path d="m-34.774 65.516h-8.6186v5.9134h8.6186l-4e-6 11.437m4e-6 -19.725h-14.306l-4e-6 19.725m14.306-22.1h-8.6186l2e-6 -7.3296h8.6186l-3e-6 -10.02m10.656 19.725 3.6503 3.5e-4 -2e-6 -19.725m-7.9793 24.117h-6.3271v-8.7842l6.3271-7e-4c2.3896 0 4.329 1.9678 4.329 4.3925 0 2.4246-1.9394 4.3925-4.329 4.3925z"/>
				<path d="m22.451 58.187h-28.613v-14.77m28.611 12.396-14.304-3.2e-4v-12.395m14.306 10.02h-6.9606v-7.4692h6.9606v-2.5512m10.654 12.395 3.6523 1e-5v-12.395m-7.9813 16.788h-6.327v-8.7842l6.327-7e-4c2.3896 0 4.329 1.9678 4.329 4.3925 0 2.4246-1.9394 4.3925-4.329 4.3925z"/>
				<path d="m20.407 70.3 2.0439-2.64e-4 0.0021 12.568m-12.702-10.189-1.6064-0.003654v10.193m1.6064-12.568h-15.913v12.567m15.928-15.455-30.234 0.061324v15.393m36.546-16.959h-6.3271v8.7842l6.3271 7e-4c2.3896 0 4.329-1.9678 4.329-4.3925 0-2.4246-1.9394-4.3925-4.329-4.3925z"/>
			</g>
		</g>
		<text x="-6.8650727" y="65.487907" fill="#000000" font-family="sans-serif" font-size="6.5726px" font-weight="bold" text-align="center" text-anchor="middle" xml:space="preserve"><tspan x="-6.8650727" y="65.487907" fill="#000000" font-family="serif" font-size="6.5726px" font-weight="bold" stroke-width=".4">7411</tspan></text>
	</g>
</svg>
