<?xml version="1.0" encoding="UTF-8"?>
<svg width="99.736mm" height="52mm" version="1.1" viewBox="0 0 99.736 52" xmlns="http://www.w3.org/2000/svg"><g stroke-width="0" text-anchor="middle"><g font-family="sans"><g font-size="4.4036px" font-weight="bold"><text x="93.45961" y="4.8073812" text-align="center" xml:space="preserve"><tspan x="93.45961" y="4.8073812" stroke-width="0">8</tspan><tspan x="93.45961" y="10.311818"/></text><text x="79.159859" y="4.8051786" text-align="center" xml:space="preserve"><tspan x="79.159859" y="4.8051786" stroke-width="0">9</tspan><tspan x="79.159859" y="10.309617"/></text><text x="64.796257" y="4.8117852" text-align="center" xml:space="preserve"><tspan x="64.796257" y="4.8117852" stroke-width="0">10</tspan><tspan x="64.796257" y="10.316223"/></text><text x="50.758495" y="4.8095822" text-align="center" xml:space="preserve"><tspan x="50.758495" y="4.8095822" stroke-width="0">11</tspan><tspan x="50.758495" y="10.31402"/></text><text x="36.174717" y="4.8316011" text-align="center" xml:space="preserve"><tspan x="36.174717" y="4.8316011" stroke-width="0">12</tspan><tspan x="36.174717" y="10.336039"/></text><text x="21.883766" y="4.8095827" text-align="center" xml:space="preserve"><tspan x="21.883766" y="4.8095827" stroke-width="0">13</tspan><tspan x="21.883766" y="10.31402"/></text><text x="7.5267591" y="4.8095827" text-align="center" xml:space="preserve"><tspan x="7.5267591" y="4.8095827" fill="#000000" font-size="4.4036px" stroke-width="0">14</tspan></text><text x="93.470619" y="50.334576" text-align="center" xml:space="preserve"><tspan x="93.470619" y="50.334576" fill="#000000" font-size="4.4036px" stroke-width="0">7</tspan></text><text x="79.146637" y="50.330177" text-align="center" xml:space="preserve"><tspan x="79.146637" y="50.330177" fill="#000000" font-size="4.4036px" stroke-width="0">6</tspan></text><text x="64.838074" y="50.312561" text-align="center" xml:space="preserve"><tspan x="64.838074" y="50.312561" fill="#000000" font-size="4.4036px" stroke-width="0">5</tspan></text><text x="50.538315" y="50.334583" text-align="center" xml:space="preserve"><tspan x="50.538315" y="50.334583" fill="#000000" font-size="4.4036px" stroke-width="0">4</tspan></text></g><g font-weight="bold"><text transform="scale(.99307 1.007)" x="36.489735" y="50.093864" font-size="4.7891px" text-align="center" xml:space="preserve"><tspan x="36.489735" y="50.093864" stroke-width="0">3</tspan><tspan x="36.489735" y="56.080261"/></text><text x="21.914587" y="50.356598" font-size="4.4036px" text-align="center" xml:space="preserve"><tspan x="21.914587" y="50.356598" stroke-width="0">2</tspan><tspan x="21.914587" y="55.861034"/></text><text x="7.8394098" y="50.334576" font-size="4.4036px" text-align="center" xml:space="preserve"><tspan x="7.8394098" y="50.334576" fill="#000000" font-size="4.4036px" stroke-width="0">1</tspan></text></g><text x="7.7648807" y="11.184979" font-size="4.6947px" text-align="center" xml:space="preserve"><tspan x="7.7648807" y="11.184979" fill="#000000" font-family="sans-serif" font-size="4.6947px" font-weight="bold" stroke-width="0">V<tspan baseline-shift="sub" fill="#000000" font-size="4.6947px" stroke-width="0">CC</tspan></tspan></text></g><text x="93.023643" y="44.286522" font-family="sans-serif" font-size="4.6947px" font-weight="bold" text-align="center" xml:space="preserve"><tspan x="93.023643" y="44.286522" fill="#000000" stroke-width="0">GND</tspan></text></g><path d="m91.103 18.67c0 0.35825-0.29204 0.649-0.64899 0.649-0.35696 0-0.649-0.29075-0.649-0.649s0.29204-0.649 0.649-0.649c0.35695 0 0.64899 0.29075 0.64899 0.649zm-11.952 2.375h-28.613v-14.77m28.611 12.396-14.304-3.2e-4v-12.395m14.306 10.02h-6.9606v-7.4692h6.9606v-2.5512m11.952 12.395 2.3543 1e-5v-12.395m-7.9813 16.788h-6.327v-8.7842l6.327-7e-4c2.3896 0 4.329 1.9678 4.329 4.3925 0 2.4246-1.9394 4.3925-4.329 4.3925zm-51.541 2.9371c0 0.3759-0.30451 0.68099-0.67671 0.68099-0.37221 0-0.67672-0.30509-0.67672-0.68099 0-0.37591 0.30451-0.68099 0.67672-0.68099 0.3722 0 0.67671 0.30508 0.67671 0.68099zm-12.01 2.375h-8.6186v5.9134h8.6186l-4e-6 11.437m4e-6 -19.725h-14.306l-4e-6 19.725m14.306-22.1h-8.6186l2e-6 -7.3296h8.6186l-3e-6 -10.02m12.01 19.725 2.2968 3.5e-4 -2e-6 -19.725m-7.9793 24.117h-6.3271v-8.7842l6.3271-7e-4c2.3896 0 4.329 1.9678 4.329 4.3925 0 2.4246-1.9394 4.3925-4.329 4.3925zm36.592 5.1402h-6.1179v5.5852h6.1179v4.6074m11.954-12.567c0 0.35825-0.29204 0.649-0.64899 0.649-0.35696 0-0.64901-0.29075-0.64901-0.649s0.29204-0.649 0.64901-0.649c0.35695 0 0.64899 0.29075 0.64899 0.649zm-5.627-4.3925h-6.3271v8.7842l6.3271 7e-4c2.3896 0 4.329-1.9678 4.329-4.3925 0-2.4246-1.9394-4.3925-4.329-4.3925zm-6.3271 1.5047-28.613 0.06132v15.393m40.567-12.566 2.3523-2.65e-4 0.0021 12.568m-14.308-12.568-14.306-1e-6v12.567m-46.289 2e-6h6.7404v6.075h-6.7404zm14.306 0h6.7404v6.075h-6.7404zm14.306-7.32e-4h6.7407v6.0757h-6.7407zm14.306 7.32e-4h6.7404v6.075h-6.7404zm14.306 0h6.7404v6.075h-6.7404zm14.306 0h6.7404v6.075h-6.7404zm14.306 0h6.7404v6.075h-6.7404zm-85.838-45.525h6.7404v6.075h-6.7404zm14.306 4.7e-7h6.7404v6.075h-6.7404zm14.306 0h6.7404v6.075h-6.7404zm14.306 0h6.7404v6.075h-6.7404zm14.306 0h6.7404v6.075h-6.7404zm14.306 0h6.7404v6.075h-6.7404zm14.306 0h6.7404v6.075h-6.7404zm-89.887 45.525h99.336v-39.45h-99.336v16.347c0.053006-0.0016 0.10604-0.0023 0.15908-0.0021 2.2032-2.07e-4 3.9895 1.5132 3.9898 3.3804 2.597e-4 1.8676-1.7862 3.3816-3.9898 3.3814-0.053056-5.7e-4 -0.10609-2e-3 -0.15908-0.0044z" fill="none" stroke="#000" stroke-width=".4"/><text x="49.834904" y="28.34643" fill="#000000" font-family="sans-serif" font-size="6.5726px" font-weight="bold" stroke-width="0" text-align="center" text-anchor="middle" xml:space="preserve"><tspan x="49.834904" y="28.34643" fill="#000000" font-family="serif" font-size="6.5726px" font-weight="bold" stroke-width="0">7410</tspan></text></svg>
