<?xml version="1.0" encoding="UTF-8"?>
<svg width="99.736mm" height="52mm" version="1.1" viewBox="0 0 99.736 52" xmlns="http://www.w3.org/2000/svg">
	<g transform="translate(-.1327 -.35253)" stroke-width=".4">
		<g stroke="#000">
			<g>
				<path d="m0.3327 46.078h99.336v-39.45h-99.336v16.347a3.9894 3.381 0 0 1 0.15908-0.0021 3.9894 3.381 0 0 1 3.9898 3.3804 3.9894 3.381 0 0 1-3.9898 3.3814 3.9894 3.381 0 0 1-0.15908-0.0044z" fill="none"/>
				<g>
					<g transform="translate(0 .21984)">
						<rect x="90.22" y=".3327" width="6.7404" height="6.075" fill="none" stroke="#000"/>
						<text x="93.592308" y="4.9400768" fill="#000000" font-family="sans" font-size="4.4036px" font-weight="bold" stroke="none" text-align="center" text-anchor="middle" xml:space="preserve"><tspan x="93.592308" y="4.9400768" stroke="none" stroke-width=".4">8</tspan><tspan x="93.592308" y="10.444514"/></text>
					</g>
					<g transform="translate(3.4968e-6 .066304)">
						<rect x="75.914" y=".48623" width="6.7404" height="6.075" fill="none" stroke="#000"/>
						<text x="79.292549" y="5.0914073" fill="#000000" font-family="sans" font-size="4.4036px" font-weight="bold" stroke="none" text-align="center" text-anchor="middle" xml:space="preserve"><tspan x="79.292549" y="5.0914073" stroke="none" stroke-width=".4">9</tspan><tspan x="79.292549" y="10.595845"/></text>
					</g>
					<g transform="translate(6.9936e-6 .066304)">
						<rect x="61.607" y=".48623" width="6.7404" height="6.075" fill="none" stroke="#000"/>
						<text x="64.928947" y="5.0980144" fill="#000000" font-family="sans" font-size="4.4036px" font-weight="bold" stroke="none" text-align="center" text-anchor="middle" xml:space="preserve"><tspan x="64.928947" y="5.0980144" stroke="none" stroke-width=".4">10</tspan><tspan x="64.928947" y="10.602452"/></text>
					</g>
					<g transform="translate(1.049e-5 .066304)">
						<rect x="47.301" y=".48623" width="6.7404" height="6.075" fill="none" stroke="#000"/>
						<text x="50.891182" y="5.0958109" fill="#000000" font-family="sans" font-size="4.4036px" font-weight="bold" stroke="none" text-align="center" text-anchor="middle" xml:space="preserve"><tspan x="50.891182" y="5.0958109" stroke="none" stroke-width=".4">11</tspan><tspan x="50.891182" y="10.600248"/></text>
					</g>
					<g transform="translate(6.3578e-6 .066304)">
						<rect x="32.994" y=".48623" width="6.7404" height="6.075" fill="none" stroke="#000"/>
						<text x="36.307407" y="5.1178303" fill="#000000" font-family="sans" font-size="4.4036px" font-weight="bold" stroke="none" text-align="center" text-anchor="middle" xml:space="preserve"><tspan x="36.307407" y="5.1178303" stroke="none" stroke-width=".4">12</tspan><tspan x="36.307407" y="10.622268"/></text>
					</g>
					<g transform="translate(-1.5895e-6 .066303)">
						<rect x="18.688" y=".48623" width="6.7404" height="6.075" fill="none" stroke="#000"/>
						<text x="22.016464" y="5.0958123" fill="#000000" font-family="sans" font-size="4.4036px" font-weight="bold" stroke="none" text-align="center" text-anchor="middle" xml:space="preserve"><tspan x="22.016464" y="5.0958123" stroke="none" stroke-width=".4">13</tspan><tspan x="22.016464" y="10.60025"/></text>
					</g>
					<g>
						<rect x="4.3817" y=".55253" width="6.7404" height="6.075" fill="none" stroke="#000"/>
						<text x="7.6594553" y="5.1621156" fill="#000000" font-family="sans" font-size="4.4036px" font-weight="bold" stroke="none" text-align="center" text-anchor="middle" xml:space="preserve"><tspan x="7.6594553" y="5.1621156" fill="#000000" font-size="4.4036px" stroke="none" stroke-width=".4">14</tspan></text>
					</g>
				</g>
				<g transform="translate(0 -.10663)">
					<g stroke-width=".4">
						<g>
							<rect x="90.22" y="46.184" width="6.7404" height="6.075" fill="none" stroke="#000"/>
							<text x="93.603317" y="50.793743" fill="#000000" font-family="sans" font-size="4.4036px" font-weight="bold" stroke="none" text-align="center" text-anchor="middle" xml:space="preserve"><tspan x="93.603317" y="50.793743" fill="#000000" font-size="4.4036px" stroke="none" stroke-width=".4">7</tspan></text>
						</g>
						<g>
							<rect x="75.914" y="46.184" width="6.7404" height="6.075" fill="none" stroke="#000"/>
							<text x="79.279335" y="50.789345" fill="#000000" font-family="sans" font-size="4.4036px" font-weight="bold" stroke="none" text-align="center" text-anchor="middle" xml:space="preserve"><tspan x="79.279335" y="50.789345" fill="#000000" font-size="4.4036px" stroke="none" stroke-width=".4">6</tspan></text>
						</g>
						<g>
							<rect x="61.607" y="46.184" width="6.7404" height="6.075" fill="none" stroke="#000"/>
							<text x="64.970772" y="50.771729" fill="#000000" font-family="sans" font-size="4.4036px" font-weight="bold" stroke="none" text-align="center" text-anchor="middle" xml:space="preserve"><tspan x="64.970772" y="50.771729" fill="#000000" font-size="4.4036px" stroke="none" stroke-width=".4">5</tspan></text>
						</g>
						<g>
							<rect x="47.301" y="46.184" width="6.7404" height="6.075" fill="none" stroke="#000"/>
							<text x="50.671009" y="50.793751" fill="#000000" font-family="sans" font-size="4.4036px" font-weight="bold" stroke="none" text-align="center" text-anchor="middle" xml:space="preserve"><tspan x="50.671009" y="50.793751" fill="#000000" font-size="4.4036px" stroke="none" stroke-width=".4">4</tspan></text>
						</g>
					</g>
					<g transform="matrix(1.0004 0 0 .99633 -.012915 .16553)" stroke-width=".40066">
						<rect x="32.996" y="46.187" width="6.7383" height="6.098" fill="none" stroke="#000"/>
						<text transform="scale(.99107 1.009)" x="36.697208" y="50.469147" fill="#000000" font-family="sans" font-size="4.7971px" font-weight="bold" stroke="none" text-align="center" text-anchor="middle" xml:space="preserve"><tspan x="36.697208" y="50.469147" stroke="none" stroke-width=".40066">3</tspan><tspan x="36.697208" y="56.465485"/></text>
					</g>
					<g stroke-width=".4">
						<rect x="18.688" y="46.184" width="6.7404" height="6.075" fill="none" stroke="#000"/>
						<text x="22.047283" y="50.815765" fill="#000000" font-family="sans" font-size="4.4036px" font-weight="bold" stroke="none" text-align="center" text-anchor="middle" xml:space="preserve"><tspan x="22.047283" y="50.815765" stroke="none" stroke-width=".4">2</tspan><tspan x="22.047283" y="56.320202"/></text>
					</g>
					<g stroke-width=".4">
						<text x="7.972106" y="50.793743" fill="#000000" font-family="sans" font-size="4.4036px" font-weight="bold" stroke="none" text-align="center" text-anchor="middle" xml:space="preserve"><tspan x="7.972106" y="50.793743" fill="#000000" font-size="4.4036px" stroke="none" stroke-width=".4">1</tspan></text>
						<rect x="4.3817" y="46.184" width="6.7404" height="6.075" fill="none" stroke="#000"/>
					</g>
				</g>
			</g>
			<g fill="none">
				<path d="m90.22 18.644h3.3702v-12.016m-57.225 2e-7 -5e-6 13.091 40.504 1.5e-5m-54.81-13.091v15.239l54.81 1e-6m-11.891-15.239-1.4e-5 10.942 11.891 1.5e-5m2.4153-10.942-3e-6 3.6475-6.6471-8e-6 -6e-6 5.1463 4.2318 5e-6m13.351 3.2226c0.0012-1.4067-2.1069-1.4067-2.1081 0-0.0012 1.4067 2.1069 1.4067 2.1081 0zm-6.6757-4.5676h-6.6757v9.1345l6.6757 7.03e-4c2.5213 0 4.5676-2.0463 4.5676-4.5676 0-2.5213-2.0463-4.5676-4.5676-4.5676z"/>
				<path d="m75.914 34.061h3.3702v12.016m-57.225 0 2e-6 -13.091 40.504-1.4e-5m-54.81 13.091v-15.239l54.81-1e-6m-11.891 15.239-1e-5 -10.942 11.891-1.5e-5m2.4153 10.942-1e-5 -3.6475-6.6471 8e-6v-5.1463l4.2318-5e-6m13.351-3.2226c0 1.4054-2.1082 1.4054-2.1082 0s2.1082-1.4054 2.1082 0zm-6.6757 4.5676h-6.6757v-9.1345l6.6757-7.03e-4c2.5213 0 4.5676 2.0463 4.5676 4.5676 0 2.5213-2.0463 4.5676-4.5676 4.5676z"/>
			</g>
		</g>
		<g transform="translate(0 -.05268)" fill="#000000" text-anchor="middle">
			<text x="7.5589643" y="11.919437" font-family="sans" font-size="4.6947px" text-align="center" xml:space="preserve"><tspan x="7.5589643" y="11.919437" fill="#000000" font-family="sans-serif" font-size="4.6947px" font-weight="bold" stroke-width=".4">V<tspan baseline-shift="sub" fill="#000000" font-size="4.6947px" stroke-width=".4">CC</tspan></tspan></text>
			<text x="92.873207" y="43.574306" font-family="sans-serif" font-size="4.6947px" font-weight="bold" text-align="center" xml:space="preserve"><tspan x="92.873207" y="43.574306" fill="#000000" stroke-width=".4">GND</tspan></text>
		</g>
		<text x="49.967598" y="28.698963" fill="#000000" font-family="sans-serif" font-size="6.5726px" font-weight="bold" text-align="center" text-anchor="middle" xml:space="preserve"><tspan x="49.967598" y="28.698963" fill="#000000" font-family="serif" font-size="6.5726px" font-weight="bold" stroke-width=".4">7420</tspan></text>
	</g>
</svg>
