<?xml version="1.0" encoding="UTF-8"?>
<svg width="99.736mm" height="52mm" version="1.1" viewBox="0 0 99.736 52" xmlns="http://www.w3.org/2000/svg"><g fill="#000000" stroke-width="0" text-anchor="middle"><g font-family="sans"><g font-size="4.4036px" font-weight="bold"><text x="93.45961" y="4.8073812" text-align="center" xml:space="preserve"><tspan x="93.45961" y="4.8073812" stroke-width="0">8</tspan><tspan x="93.45961" y="10.311818"/></text><text x="79.159859" y="4.8051786" text-align="center" xml:space="preserve"><tspan x="79.159859" y="4.8051786" stroke-width="0">9</tspan><tspan x="79.159859" y="10.309617"/></text><text x="64.796257" y="4.8117852" text-align="center" xml:space="preserve"><tspan x="64.796257" y="4.8117852" stroke-width="0">10</tspan><tspan x="64.796257" y="10.316223"/></text><text x="50.758495" y="4.8095822" text-align="center" xml:space="preserve"><tspan x="50.758495" y="4.8095822" stroke-width="0">11</tspan><tspan x="50.758495" y="10.31402"/></text><text x="36.174717" y="4.8316011" text-align="center" xml:space="preserve"><tspan x="36.174717" y="4.8316011" stroke-width="0">12</tspan><tspan x="36.174717" y="10.336039"/></text><text x="21.883766" y="4.8095827" text-align="center" xml:space="preserve"><tspan x="21.883766" y="4.8095827" stroke-width="0">13</tspan><tspan x="21.883766" y="10.31402"/></text><text x="7.5267591" y="4.8095827" text-align="center" xml:space="preserve"><tspan x="7.5267591" y="4.8095827" fill="#000000" font-size="4.4036px" stroke-width="0">14</tspan></text><text x="93.470619" y="50.334576" text-align="center" xml:space="preserve"><tspan x="93.470619" y="50.334576" fill="#000000" font-size="4.4036px" stroke-width="0">7</tspan></text><text x="79.146637" y="50.330177" text-align="center" xml:space="preserve"><tspan x="79.146637" y="50.330177" fill="#000000" font-size="4.4036px" stroke-width="0">6</tspan></text><text x="64.838074" y="50.312561" text-align="center" xml:space="preserve"><tspan x="64.838074" y="50.312561" fill="#000000" font-size="4.4036px" stroke-width="0">5</tspan></text><text x="50.538315" y="50.334583" text-align="center" xml:space="preserve"><tspan x="50.538315" y="50.334583" fill="#000000" font-size="4.4036px" stroke-width="0">4</tspan></text></g><g font-weight="bold"><text transform="scale(.99307 1.007)" x="36.489735" y="50.093864" font-size="4.7891px" text-align="center" xml:space="preserve"><tspan x="36.489735" y="50.093864" stroke-width="0">3</tspan><tspan x="36.489735" y="56.080261"/></text><text x="21.914587" y="50.356598" font-size="4.4036px" text-align="center" xml:space="preserve"><tspan x="21.914587" y="50.356598" stroke-width="0">2</tspan><tspan x="21.914587" y="55.861034"/></text><text x="7.8394098" y="50.334576" font-size="4.4036px" text-align="center" xml:space="preserve"><tspan x="7.8394098" y="50.334576" fill="#000000" font-size="4.4036px" stroke-width="0">1</tspan></text></g><text x="7.4262681" y="11.514224" font-size="4.6947px" text-align="center" xml:space="preserve"><tspan x="7.4262681" y="11.514224" fill="#000000" font-family="sans-serif" font-size="4.6947px" font-weight="bold" stroke-width="0">V<tspan baseline-shift="sub" fill="#000000" font-size="4.6947px" stroke-width="0">CC</tspan></tspan></text></g><text x="92.740509" y="43.169094" font-family="sans-serif" font-size="4.6947px" font-weight="bold" text-align="center" xml:space="preserve"><tspan x="92.740509" y="43.169094" fill="#000000" stroke-width="0">GND</tspan></text></g><path d="m63.012 40.485v-0.0267c0.72777-1.4585 1.1481-3.1467 1.1481-4.9497 0-1.8069-0.42032-3.4951-1.1481-4.9535v-0.02294h4.4576c3.1805 0 5.9572 2.0021 7.4465 4.9765-1.4893 2.9706-4.266 4.9765-7.4465 4.9765zm-1.6548-0.0267c0.72777-1.4585 1.1481-3.1467 1.1481-4.9497 0-1.8069-0.42031-3.4951-1.1481-4.9535m3.487 15.17v-2.5559h-7.1496l1e-6 -4.9556 4.4855-9.2e-4m-11.642 7.5124 4e-6 -12.93 11.651 2e-6m12.479 2.7145 4.4824-0.0046-2e-6 10.221m-59.058-5.2401v-0.0267c0.72777-1.4585 1.1481-3.1467 1.1481-4.9497 0-1.8069-0.42032-3.4951-1.1481-4.9535v-0.02294h4.4576c3.1805 0 5.9572 2.0021 7.4465 4.9765-1.4893 2.9706-4.266 4.9765-7.4465 4.9765zm-1.6548-0.0267c0.72777-1.4585 1.1481-3.1467 1.1481-4.9497 0-1.8069-0.42031-3.4951-1.1481-4.9535m3.487 15.17v-2.5559h-7.1496l1e-6 -4.9556 4.4855-9.2e-4m-11.642 7.5124 4e-6 -12.93 11.651 2e-6m12.479 2.7145 4.4824-0.0046-2e-6 10.221m41.087-34.21v0.0267c0.72777 1.4585 1.1481 3.1467 1.1481 4.9497 0 1.8069-0.42032 3.4951-1.1481 4.9535v0.02294h4.4576c3.1805 0 5.9572-2.0021 7.4465-4.9765-1.4893-2.9706-4.266-4.9765-7.4465-4.9765zm-1.6548 0.0267c0.72777 1.4585 1.1481 3.1467 1.1481 4.9497 0 1.8069-0.42031 3.4951-1.1481 4.9535m3.487-15.17v2.5559h-7.1496l1e-6 4.9556 4.4855 9.2e-4m-11.642-7.5124 4e-6 12.93 11.651-2e-6m12.479-2.7145 4.4824 0.0046v-10.221m-59.058 5.2401v0.0267c0.72777 1.4585 1.1481 3.1467 1.1481 4.9497 0 1.8069-0.42032 3.4951-1.1481 4.9535v0.02294h4.4576c3.1805 0 5.9572-2.0021 7.4465-4.9765-1.4893-2.9706-4.266-4.9765-7.4465-4.9765zm-1.6548 0.0267c0.72777 1.4585 1.1481 3.1467 1.1481 4.9497 0 1.8069-0.42031 3.4951-1.1481 4.9535m3.487-15.17v2.5559h-7.1496l1e-6 4.9556 4.4855 9.2e-4m-11.642-7.5124 4e-6 12.93 11.651-2e-6m12.479-2.7145 4.4824 0.0046-2e-6 -10.221m-46.289 39.45h6.7404v6.075h-6.7404zm14.306 0h6.7404v6.075h-6.7404zm14.306-7.32e-4h6.7407v6.0757h-6.7407zm14.306 7.32e-4h6.7404v6.075h-6.7404zm14.306 0h6.7404v6.075h-6.7404zm14.306 0h6.7404v6.075h-6.7404zm14.306 0h6.7404v6.075h-6.7404zm-85.838-45.525h6.7404v6.075h-6.7404zm14.306 4.7e-7h6.7404v6.075h-6.7404zm14.306 0h6.7404v6.075h-6.7404zm14.306 0h6.7404v6.075h-6.7404zm14.306 0h6.7404v6.075h-6.7404zm14.306 0h6.7404v6.075h-6.7404zm14.306 0h6.7404v6.075h-6.7404zm-89.887 45.525h99.336v-39.45h-99.336v16.347a3.9894 3.381 0 0 1 0.15908-0.0021 3.9894 3.381 0 0 1 3.9898 3.3804 3.9894 3.381 0 0 1-3.9898 3.3814 3.9894 3.381 0 0 1-0.15908-0.0044z" fill="none" stroke="#000" stroke-width=".4"/><text x="49.838188" y="28.34643" fill="#000000" font-family="sans-serif" font-size="6.5726px" font-weight="bold" stroke-width="0" text-align="center" text-anchor="middle" xml:space="preserve"><tspan x="49.838188" y="28.34643" fill="#000000" font-family="serif" font-size="6.5726px" font-weight="bold" stroke-width="0">7486</tspan></text></svg>
