<?xml version="1.0" encoding="UTF-8"?>
<svg width="75.5mm" height="52mm" version="1.1" viewBox="0 0 75.5 52" xmlns="http://www.w3.org/2000/svg"><g font-weight="bold" stroke-width="0" text-anchor="middle"><g font-family="sans"><g font-size="3.199px"><text transform="scale(1.019 .9812)" x="6.2037897" y="8.3868256" text-align="center" xml:space="preserve"><tspan x="6.2037897" y="8.3868256" fill="#000000" font-size="3.199px" stroke-width="0">14</tspan></text><text transform="scale(1.019 .9812)" x="68.979286" y="8.3868256" text-align="center" xml:space="preserve"><tspan x="68.979286" y="8.3868256" stroke-width="0">8</tspan><tspan x="68.979286" y="12.385028"/></text><text transform="scale(1.019 .9812)" x="58.516708" y="8.3868256" text-align="center" xml:space="preserve"><tspan x="58.516708" y="8.3868256" stroke-width="0">9</tspan><tspan x="58.516708" y="12.385028"/></text><text transform="scale(1.019 .9812)" x="48.054123" y="8.3868256" text-align="center" xml:space="preserve"><tspan x="48.054123" y="8.3868256" stroke-width="0">10</tspan><tspan x="48.054123" y="12.385028"/></text><text transform="scale(1.019 .9812)" x="37.591534" y="8.3868256" text-align="center" xml:space="preserve"><tspan x="37.591534" y="8.3868256" stroke-width="0">11</tspan><tspan x="37.591534" y="12.385028"/></text><text transform="scale(1.019 .9812)" x="27.128948" y="8.3868256" text-align="center" xml:space="preserve"><tspan x="27.128948" y="8.3868256" stroke-width="0">12</tspan><tspan x="27.128948" y="12.385028"/></text><text transform="scale(1.019 .9812)" x="16.666361" y="8.3868256" text-align="center" xml:space="preserve"><tspan x="16.666361" y="8.3868256" stroke-width="0">13</tspan><tspan x="16.666361" y="12.385028"/></text><text transform="scale(1.019 .9812)" x="6.2037897" y="47.236965" text-align="center" xml:space="preserve"><tspan x="6.2037897" y="47.236965" fill="#000000" font-size="3.199px" stroke-width="0">1</tspan></text><text transform="scale(1.019 .9812)" x="68.979286" y="47.236965" text-align="center" xml:space="preserve"><tspan x="68.979286" y="47.236965" fill="#000000" font-size="3.199px" stroke-width="0">7</tspan></text><text transform="scale(1.019 .9812)" x="58.516693" y="47.236965" text-align="center" xml:space="preserve"><tspan x="58.516693" y="47.236965" fill="#000000" font-size="3.199px" stroke-width="0">6</tspan></text><text transform="scale(1.019 .9812)" x="48.054123" y="47.236965" text-align="center" xml:space="preserve"><tspan x="48.054123" y="47.236965" fill="#000000" font-size="3.199px" stroke-width="0">5</tspan></text><text transform="scale(1.019 .9812)" x="37.591534" y="47.236965" text-align="center" xml:space="preserve"><tspan x="37.591534" y="47.236965" fill="#000000" font-size="3.199px" stroke-width="0">4</tspan></text><text transform="scale(1.019 .9812)" x="27.128948" y="47.236965" text-align="center" xml:space="preserve"><tspan x="27.128948" y="47.236965" stroke-width="0">3</tspan><tspan x="27.128948" y="51.235168"/></text><text transform="scale(1.019 .9812)" x="16.666361" y="47.236965" text-align="center" xml:space="preserve"><tspan x="16.666361" y="47.236965" stroke-width="0">2</tspan><tspan x="16.666361" y="51.235168"/></text></g><g font-size="2.928px"><text transform="scale(1.019 .9812)" x="17.397099" y="25.22838" text-align="center" xml:space="preserve"><tspan x="17.397099" y="25.22838" fill="#000000" font-size="2.928px" stroke-width="0">CLK</tspan></text><text transform="scale(1.019 .9812)" x="15.655054" y="30.693819" text-align="center" xml:space="preserve"><tspan x="15.655054" y="30.693819" fill="#000000" font-size="2.928px" stroke-width="0">D</tspan></text><text transform="scale(1.019 .9812)" x="21.774624" y="33.461704" text-align="center" xml:space="preserve"><tspan x="21.774624" y="33.461704" fill="#000000" font-size="2.928px" stroke-width="0">PR</tspan></text><text transform="scale(1.019 .9812)" x="28.020382" y="30.592983" text-align="center" xml:space="preserve"><tspan x="28.020382" y="30.592983" fill="#000000" font-size="2.928px" stroke-width="0">Q</tspan></text><text transform="scale(1.019 .9812)" x="28.020035" y="25.304424" text-align="center" xml:space="preserve"><tspan x="28.020035" y="25.304424" fill="#000000" font-size="2.928px" stroke-width="0">Q</tspan></text></g></g><g font-size="2.928px"><text transform="scale(1.019 .9812)" x="21.774624" y="22.215567" font-family="serif" text-align="center" xml:space="preserve"><tspan x="21.774624" y="22.215567" fill="#000000" font-family="sans" font-size="2.928px" font-weight="bold" stroke-width="0">R</tspan></text><g font-family="sans"><text transform="scale(1.019 .9812)" x="51.459484" y="30.673075" text-align="center" xml:space="preserve"><tspan x="51.459484" y="30.673075" fill="#000000" font-size="2.928px" stroke-width="0">CLK</tspan></text><text transform="scale(1.019 .9812)" x="49.717289" y="25.207636" text-align="center" xml:space="preserve"><tspan x="49.717289" y="25.207636" fill="#000000" font-size="2.928px" stroke-width="0">D</tspan></text><text transform="scale(1.019 .9812)" x="55.884113" y="22.194822" text-align="center" xml:space="preserve"><tspan x="55.884113" y="22.194822" fill="#000000" font-size="2.928px" stroke-width="0">PR</tspan></text><text transform="scale(1.019 .9812)" x="62.129524" y="25.075043" text-align="center" xml:space="preserve"><tspan x="62.129524" y="25.075043" fill="#000000" font-size="2.928px" stroke-width="0">Q</tspan></text><text transform="scale(1.019 .9812)" x="62.129868" y="30.780878" text-align="center" xml:space="preserve"><tspan x="62.129868" y="30.780878" fill="#000000" font-size="2.928px" stroke-width="0">Q</tspan></text></g><text transform="scale(1.019 .9812)" x="55.884113" y="33.44096" font-family="serif" text-align="center" xml:space="preserve"><tspan x="55.884113" y="33.44096" fill="#000000" font-family="sans" font-size="2.928px" font-weight="bold" stroke-width="0">R</tspan></text></g><g font-family="sans"><text transform="scale(1.019 .9812)" x="58.543877" y="2.7292919" font-size="3.199px" text-align="center" xml:space="preserve"><tspan x="58.543877" y="2.7292919" fill="#000000" font-size="3.199px" stroke-width="0">Q2</tspan></text><text transform="scale(.9828 1.018)" x="39.109035" y="2.8769147" font-size="3.084px" text-align="center" xml:space="preserve"><tspan x="39.109035" y="2.8769147" fill="#000000" font-size="3.084px" stroke-width="0">CLK2</tspan></text><text transform="scale(1.019 .9812)" x="27.104952" y="2.9995632" font-size="3.199px" text-align="center" xml:space="preserve"><tspan x="27.104952" y="2.9995632" fill="#000000" font-size="3.199px" stroke-width="0">D2</tspan></text><text transform="scale(.9914 1.009)" x="6.5170717" y="2.6601622" font-size="2.42px" text-align="center" xml:space="preserve"><tspan x="6.5170717" y="2.6601622" fill="#000000" stroke-width="0"><tspan font-size="3.111px">V</tspan><tspan baseline-shift="sub" font-size="2.42px">CC</tspan></tspan></text><g font-size="3.199px"><text transform="scale(1.019 .9812)" x="16.642378" y="3.424911" text-align="center" xml:space="preserve"><tspan x="16.642378" y="3.424911" fill="#000000" font-size="3.199px" stroke-width="0">R2</tspan></text><text transform="scale(1.019 .9812)" x="48.030125" y="3.4455898" text-align="center" xml:space="preserve"><tspan x="48.030125" y="3.4455898" fill="#000000" font-size="3.199px" stroke-width="0">PR2</tspan></text><text transform="scale(1.019 .9812)" x="69.006462" y="3.1169105" text-align="center" xml:space="preserve"><tspan x="69.006462" y="3.1169105" fill="#000000" font-size="3.199px" stroke-width="0">Q2</tspan></text></g><text transform="scale(1.019 .9812)" x="16.843887" y="52.470303" font-size="3.554px" text-align="center" xml:space="preserve"><tspan x="16.843887" y="52.470303" fill="#000000" font-size="3.554px" stroke-width="0">D1</tspan></text><text transform="scale(.9931 1.007)" x="28.068153" y="51.001213" font-size="3.116px" text-align="center" xml:space="preserve"><tspan x="28.068153" y="51.001213" fill="#000000" stroke-width="0">CLK1</tspan></text><g font-size="3.199px"><text transform="scale(1.019 .9812)" x="48.282814" y="52.089157" text-align="center" xml:space="preserve"><tspan x="48.282814" y="52.089157" fill="#000000" stroke-width="0">Q1</tspan></text><text transform="scale(1.019 .9812)" x="69.096207" y="52.011131" text-align="center" xml:space="preserve"><tspan x="69.096207" y="52.011131" fill="#000000" stroke-width="0">GND</tspan></text><text transform="scale(1.019 .9812)" x="6.3813004" y="52.747532" text-align="center" xml:space="preserve"><tspan x="6.3813004" y="52.747532" fill="#000000" stroke-width="0">R1</tspan></text><text transform="scale(1.019 .9812)" x="37.769047" y="52.75811" text-align="center" xml:space="preserve"><tspan x="37.769047" y="52.75811" fill="#000000" stroke-width="0">PR1</tspan></text><text transform="scale(1.019 .9812)" x="58.745388" y="52.454048" text-align="center" xml:space="preserve"><tspan x="58.745388" y="52.454048" fill="#000000" stroke-width="0">Q1</tspan></text></g></g></g><path d="m57.85 48.66 3.725-0.01498m-25.88 0.2398 5.38-0.0019m-36.41 0.009639 3.458-0.0019m60.18-48.69 4.141-0.002845m-26.26 0.2138 5.726-0.003794m-36.76 0.01653 3.823 0.001896m30.08 28.66-2.028-6e-6c-8.6e-5 -1.712 0-4.635 0-4.635-0.2502 1.98e-4 -0.4815-0.1332-0.6067-0.3498-0.1251-0.2166-0.1251-0.4836 0-0.7002 0.1252-0.2167 0.3565-0.35 0.6067-0.3498v-12.02h-8.636v-1.952m19.52 9.536a0.8284 0.8284 0 0 0-0.343-0.8647 0.8284 0.8284 0 0 0-0.9302-7.75e-4 0.8284 0.8284 0 0 0-0.3445 0.8641m1.614 15.33a0.8284 0.8284 0 0 1-0.3336 0.8795 0.8284 0.8284 0 0 1-0.9406 6.67e-4 0.8284 0.8284 0 0 1-0.3349-0.879m-7.241-15.29h16.09v15.28h-16.09zm13.26 9.053 2.03 9.1e-4m-7.246-10.1v-5.124l-7.88-0.0033 0.0025-3.41m10.49-0.0171-0.0059 3.45 8.003-0.01924v11.27h-2.567m-48.08-14.67 1.4e-5 5.437h23.69v21.67h16.35v-1.218m13.21-26 0.0689 20.12h-5.234m-37.34-20.01 5.71e-4 3.524 16.19-0.1109v11.27h5.057m-10.66 19.5 5.5e-5 -1.807h-9.963c-9.4e-5 -0.2501-0.1337-0.4812-0.3504-0.6062-0.1064-0.06132-0.227-0.09359-0.3498-0.09354-0.1228-4.9e-5 -0.2435 0.03221-0.3498 0.09354-0.2167 0.1249-0.3503 0.356-0.3504 0.6062h-4.691m0-6.479v2.48c-0.2501 9.4e-5 -0.4812 0.1337-0.6062 0.3504-0.1249 0.2165-0.1249 0.4832 0 0.6997 0.1249 0.2167 0.356 0.3503 0.6062 0.3504l1.58e-4 2.8m-9.436-3.5h14.83m-1e-6 5.106v-5.106m-13.45-14.39h-1.377v4.67c-0.2502-1.97e-4 -0.4815 0.1332-0.6067 0.3498-0.1251 0.2166-0.1251 0.4836 0 0.7002 0.1252 0.2167 0.3565 0.35 0.6067 0.3498v8.322m9.435-20.51v-1.399l-15.94 6e-6 1.01e-5 27.02m16.74-24.61a0.8284 0.8284 0 0 0-0.343-0.8647 0.8284 0.8284 0 0 0-0.9302-7.74e-4 0.8284 0.8284 0 0 0-0.3445 0.8641m1.614 15.33a0.8284 0.8284 0 0 1-0.3336 0.8795 0.8284 0.8284 0 0 1-0.9406 6.68e-4 0.8284 0.8284 0 0 1-0.3349-0.879m-7.241-15.29h16.09v15.28h-16.09zm13.26 3.659 2.03 9.09e-4m19.47 20.91 1e-6 -3.153h-15.2v-11.01h-3.469m1e-6 -5.336h7.02v14.39l22.32 1e-6 3e-6 5.106m-45.6-14.11-4.469-0.04658v11.01h7.413v3.153m-2.31-3e-6h4.62v3.954h-4.62zm10.66 0h4.62v3.954h-4.62zm10.66 0h4.62v3.954h-4.62zm10.66 0h4.62v3.954h-4.62zm10.66 0h4.62v3.954h-4.62zm10.66 0h4.62v3.954h-4.62zm-63.98 0h4.62v3.954h-4.62zm10.66-38.12h4.62v3.954h-4.62zm10.66 0h4.62v3.954h-4.62zm10.66 0h4.62v3.954h-4.62zm10.66 0h4.62v3.954h-4.62zm10.66 0h4.62v3.954h-4.62zm10.66 0h4.62v3.954h-4.62zm-63.98 0h4.62v3.954h-4.62zm-3.881 38.12h75.1v-34.17h-75.1v14.16a3.016 2.929 0 0 1 0.1203-0.0019 3.016 2.929 0 0 1 3.017 2.928 3.016 2.929 0 0 1-3.017 2.929 3.016 2.929 0 0 1-0.1203-0.0038z" fill="none" stroke="#000" stroke-width=".4"/></svg>
